<svg xmlns="http://www.w3.org/2000/svg" xmlns:xlink="http://www.w3.org/1999/xlink" width="487.836" height="375.901" viewBox="0 0 487.836 375.901">
  <defs>
    <linearGradient id="linear-gradient" x1="0.532" y1="0.602" x2="1.238" y2="1.308" gradientUnits="objectBoundingBox">
      <stop offset="0" stop-color="#fff"/>
      <stop offset="1" stop-color="#b9b9b9"/>
    </linearGradient>
    <linearGradient id="linear-gradient-2" x1="0.15" y1="0.15" x2="0.856" y2="0.856" gradientUnits="objectBoundingBox">
      <stop offset="0" stop-color="#eef1f2"/>
      <stop offset="1" stop-color="#f3f7f7"/>
    </linearGradient>
  </defs>
  <g id="Group_697" data-name="Group 697" transform="translate(-437.338 -1445.445)">
    <g id="Stroke" transform="translate(782.74 1449.2)">
      <g id="Group_370" data-name="Group 370" transform="translate(0 0)">
        <path id="Path_1373" data-name="Path 1373" d="M1104.246,448.361a.652.652,0,0,0,.512-.247l88.719-115.2h47.987a.651.651,0,0,0,0-1.3h-48.3a.654.654,0,0,0-.511.247l-88.915,115.452a.651.651,0,0,0,.51,1.055Z" transform="translate(-1103.596 -331.608)" fill="#414042"/>
      </g>
      <g id="Group_371" data-name="Group 371" transform="translate(14.816 246.756)">
        <path id="Path_1374" data-name="Path 1374" d="M1195.711,1182.081l50.867.929a.652.652,0,0,0,0-1.3l-50.552-.929-72.268-119.958a.651.651,0,0,0-1.022.806l72.464,120.206A.65.65,0,0,0,1195.711,1182.081Z" transform="translate(-1122.596 -1060.573)" fill="#414042"/>
      </g>
      <g id="Group_372" data-name="Group 372" transform="translate(20.43 117.53)">
        <path id="Path_1375" data-name="Path 1375" d="M1104.248,657.245a.648.648,0,0,0,.4-.138l67.378-40.5,49.007.929a.651.651,0,1,0,0-1.3L1171.8,615.3a.651.651,0,0,0-.4.138l-67.556,40.639a.651.651,0,0,0,.4,1.163Z" transform="translate(-1103.596 -615.305)" fill="#414042"/>
      </g>
      <g id="Group_373" data-name="Group 373" transform="translate(21.329 196.385)">
        <path id="Path_1376" data-name="Path 1376" d="M1171.834,1006.167h48.3a.652.652,0,0,0,0-1.3h-48.068l-67.406-46.391a.651.651,0,1,0-.829,1l67.586,46.541A.648.648,0,0,0,1171.834,1006.167Z" transform="translate(-1103.596 -958.323)" fill="#414042"/>
      </g>
    </g>
    <g id="Small_circles" transform="translate(777.959 1446.374)">
      <g id="Group_328" data-name="Group 328" transform="translate(0 116.252)">
        <path id="Path_209" data-name="Path 209" d="M2004.706,626.5a4.534,4.534,0,1,1,4.534,4.534A4.534,4.534,0,0,1,2004.706,626.5Z" transform="translate(-2004.706 -621.966)" fill="#fcb61a"/>
      </g>
      <g id="Group_329" data-name="Group 329" transform="translate(20.431 157.111)">
        <path id="Path_210" data-name="Path 210" d="M2068.012,726.306a4.534,4.534,0,1,1,4.534,4.534A4.534,4.534,0,0,1,2068.012,726.306Z" transform="translate(-2068.012 -721.772)" fill="#eba915"/>
      </g>
      <g id="Group_331" data-name="Group 331" transform="translate(21.346 196.257)">
        <ellipse id="Ellipse_126" data-name="Ellipse 126" cx="4.534" cy="4.534" rx="4.534" ry="4.534" fill="#d29308"/>
      </g>
      <g id="Group_332" data-name="Group 332" transform="translate(14.816 245.697)">
        <ellipse id="Ellipse_127" data-name="Ellipse 127" cx="4.534" cy="4.534" rx="4.534" ry="4.534" fill="#946909"/>
      </g>
      <g id="Group_333" data-name="Group 333" transform="translate(138.147 365.904)">
        <path id="Path_212" data-name="Path 212" d="M2426.611,1385.748a4.534,4.534,0,1,1,4.534,4.534A4.534,4.534,0,0,1,2426.611,1385.748Z" transform="translate(-2426.611 -1381.214)" fill="#946909"/>
      </g>
      <g id="Group_334" data-name="Group 334" transform="translate(138.147 241.9)">
        <path id="Path_213" data-name="Path 213" d="M2426.611,1119.136a4.534,4.534,0,1,1,4.534,4.534A4.534,4.534,0,0,1,2426.611,1119.136Z" transform="translate(-2426.611 -1114.602)" fill="#d29308"/>
      </g>
      <g id="Group_336" data-name="Group 336" transform="translate(137.218 117.498)">
        <path id="Path_215" data-name="Path 215" d="M2426.611,585.911a4.534,4.534,0,1,1,4.534,4.534A4.534,4.534,0,0,1,2426.611,585.911Z" transform="translate(-2426.611 -581.377)" fill="#eba915"/>
      </g>
      <g id="Group_337" data-name="Group 337" transform="translate(137.218 0)">
        <path id="Path_216" data-name="Path 216" d="M2426.611,319.3a4.534,4.534,0,1,1,4.534,4.534A4.534,4.534,0,0,1,2426.611,319.3Z" transform="translate(-2426.611 -314.765)" fill="#fcb61a"/>
      </g>
    </g>
    <g id="Group_338" data-name="Group 338" transform="translate(570.015 1540.678)">
      <ellipse id="Ellipse_128" data-name="Ellipse 128" cx="106.129" cy="106.129" rx="106.129" ry="106.129" transform="translate(0 0)" fill="#02151a"/>
    </g>
    <g id="_02" data-name="02" transform="translate(593.255 1563.919)">
      <path id="Path_289" data-name="Path 289" d="M1720.378,725.3a82.889,82.889,0,1,1-82.89-82.889A82.891,82.891,0,0,1,1720.378,725.3Z" transform="translate(-1554.599 -642.41)" fill="url(#linear-gradient)"/>
      <path id="Path_290" data-name="Path 290" d="M1641.59,649.035a80.361,80.361,0,1,0,80.36,80.362A80.361,80.361,0,0,0,1641.59,649.035Z" transform="translate(-1558.701 -646.508)" fill="url(#linear-gradient-2)"/>
    </g>
    <g id="Stroke-2" data-name="Stroke" transform="translate(420.291 1449.2)">
      <g id="Group_370-2" data-name="Group 370" transform="translate(0.929 0)">
        <path id="Path_1373-2" data-name="Path 1373" d="M1261.465,448.361a.652.652,0,0,1-.512-.247l-88.719-115.2h-47.987a.651.651,0,0,1,0-1.3h48.3a.654.654,0,0,1,.511.247l88.915,115.452a.651.651,0,0,1-.51,1.055Z" transform="translate(-1103.596 -331.608)" fill="#414042"/>
      </g>
      <g id="Group_371-2" data-name="Group 371" transform="translate(0 246.756)">
        <path id="Path_1374-2" data-name="Path 1374" d="M1192.114,1182.081l-48.867.929a.652.652,0,0,1,0-1.3l48.552-.929,74.268-119.958a.651.651,0,0,1,1.022.806l-74.464,120.206A.65.65,0,0,1,1192.114,1182.081Z" transform="translate(-1122.596 -1060.573)" fill="#414042"/>
      </g>
      <g id="Group_372-2" data-name="Group 372" transform="translate(0.929 117.53)">
        <path id="Path_1375-2" data-name="Path 1375" d="M1241.033,657.245a.648.648,0,0,1-.4-.138l-67.379-40.5-49.007.929a.651.651,0,0,1,0-1.3l49.232-.929a.652.652,0,0,1,.4.138l67.555,40.639a.651.651,0,0,1-.4,1.163Z" transform="translate(-1103.596 -615.305)" fill="#414042"/>
      </g>
      <g id="Group_373-2" data-name="Group 373" transform="translate(0.929 196.385)">
        <path id="Path_1376-2" data-name="Path 1376" d="M1172.549,1006.167h-48.3a.652.652,0,0,1,0-1.3h48.068l67.406-46.391a.651.651,0,1,1,.829,1l-67.586,46.541A.649.649,0,0,1,1172.549,1006.167Z" transform="translate(-1103.596 -958.323)" fill="#414042"/>
      </g>
    </g>
    <g id="Small_circles-2" data-name="Small_circles" transform="translate(417.338 1445.445)">
      <g id="Group_375" data-name="Group 375" transform="translate(159.076 117.181)">
        <path id="Path_1378" data-name="Path 1378" d="M1524.389,626.5a4.534,4.534,0,1,0-4.534,4.534A4.534,4.534,0,0,0,1524.389,626.5Z" transform="translate(-1515.32 -621.966)" fill="#fcb61a"/>
      </g>
      <g id="Group_376" data-name="Group 376" transform="translate(136.787 157.111)">
        <path id="Path_1379" data-name="Path 1379" d="M1461.083,726.306a4.534,4.534,0,1,0-4.534,4.534A4.534,4.534,0,0,0,1461.083,726.306Z" transform="translate(-1452.015 -721.772)" fill="#eba915"/>
      </g>
      <g id="Group_378" data-name="Group 378" transform="translate(133.083 198.116)">
        <circle id="Ellipse_134" data-name="Ellipse 134" cx="4.534" cy="4.534" r="4.534" fill="#d29308"/>
      </g>
      <g id="Group_379" data-name="Group 379" transform="translate(142.402 246.626)">
        <circle id="Ellipse_135" data-name="Ellipse 135" cx="4.534" cy="4.534" r="4.534" fill="#946909"/>
      </g>
      <g id="Group_380" data-name="Group 380" transform="translate(20 366.833)">
        <path id="Path_1381" data-name="Path 1381" d="M1102.484,1385.748a4.534,4.534,0,1,0-4.534,4.534A4.534,4.534,0,0,0,1102.484,1385.748Z" transform="translate(-1093.416 -1381.214)" fill="#946909"/>
      </g>
      <g id="Group_381" data-name="Group 381" transform="translate(20 242.83)">
        <path id="Path_1382" data-name="Path 1382" d="M1102.484,1119.136a4.534,4.534,0,1,0-4.534,4.534A4.534,4.534,0,0,0,1102.484,1119.136Z" transform="translate(-1093.416 -1114.602)" fill="#d29308"/>
      </g>
      <g id="Group_383" data-name="Group 383" transform="translate(20 119.356)">
        <path id="Path_1384" data-name="Path 1384" d="M1102.484,585.911a4.534,4.534,0,1,0-4.534,4.534A4.534,4.534,0,0,0,1102.484,585.911Z" transform="translate(-1093.416 -581.377)" fill="#eba915"/>
      </g>
      <g id="Group_384" data-name="Group 384" transform="translate(20 0)">
        <path id="Path_1385" data-name="Path 1385" d="M1102.484,319.3a4.534,4.534,0,1,0-4.534,4.534A4.534,4.534,0,0,0,1102.484,319.3Z" transform="translate(-1093.416 -314.765)" fill="#fcb61a"/>
      </g>
    </g>
    <text id="ALUMNI_BENEFITS" data-name="ALUMNI 
BENEFITS" stroke="#000" transform="translate(672.312 1640.525)" stroke-width="1" font-size="21" font-family="SegoeUI-Bold, Segoe UI" font-weight="700" letter-spacing="0.045em"><tspan x="-47.537" y="0">ALUMNI </tspan><tspan x="-50.337" y="28">BENEFITS</tspan></text>
  </g>
</svg>
