<svg xmlns="http://www.w3.org/2000/svg" width="34.709" height="34.709" viewBox="0 0 34.709 34.709">
  <g id="Group_431" data-name="Group 431" transform="translate(-4.75 -4.75)">
    <path id="Path_1773" data-name="Path 1773" d="M36.168,15.263A3.05,3.05,0,0,0,33.128,18.3v.038L28.11,19.71A6.512,6.512,0,0,0,22.1,15.643a6.374,6.374,0,0,0-3.991,1.406l-3.535-3.535a5.546,5.546,0,0,0,1.064-3.193,5.321,5.321,0,1,0-5.321,5.321,5.546,5.546,0,0,0,3.193-1.064l3.535,3.535a6.4,6.4,0,0,0,1.254,9.2l-2.091,3.725a5.112,5.112,0,0,0-1.33-.19,4.181,4.181,0,1,0,4.181,4.181,4.3,4.3,0,0,0-1.52-3.231l2.091-3.725a6.66,6.66,0,0,0,2.471.494A6.456,6.456,0,0,0,28.566,22.1a8,8,0,0,0-.076-.95l5.055-1.368a3.086,3.086,0,0,0,2.623,1.558,3.041,3.041,0,0,0,0-6.082ZM14.883,37.689a2.661,2.661,0,1,1,2.661-2.661A2.644,2.644,0,0,1,14.883,37.689ZM6.52,10.321a3.8,3.8,0,1,1,3.8,3.8A3.812,3.812,0,0,1,6.52,10.321ZM22.1,27.046A4.941,4.941,0,1,1,27.046,22.1,4.931,4.931,0,0,1,22.1,27.046Zm14.064-7.222a1.52,1.52,0,1,1,1.52-1.52A1.525,1.525,0,0,1,36.168,19.824Z" fill="#042542" stroke="#000" stroke-width="0.5"/>
  </g>
</svg>
