<svg xmlns="http://www.w3.org/2000/svg" width="36.322" height="34.505" viewBox="0 0 36.322 34.505">
  <path id="Path_1772" data-name="Path 1772" d="M34.689,5.632V3.816A1.821,1.821,0,0,0,32.873,2H7.448A1.821,1.821,0,0,0,5.632,3.816V7.448H4.724a2.724,2.724,0,0,0,0,5.448h.908v3.632H4.724a2.724,2.724,0,1,0,0,5.448h.908v3.632H4.724a2.724,2.724,0,1,0,0,5.448h.908v3.632a1.821,1.821,0,0,0,1.816,1.816H32.873a1.821,1.821,0,0,0,1.816-1.816V32.873h3.632V5.632ZM8.356,29.241H4.724a.908.908,0,0,1,0-1.816H8.356a.908.908,0,1,1,0,1.816Zm0-9.08H4.724a.908.908,0,0,1,0-1.816H8.356a.908.908,0,1,1,0,1.816Zm0-9.08H4.724a.908.908,0,1,1,0-1.816H8.356a.908.908,0,1,1,0,1.816Zm19.069,3.632H12.9V7.448H27.425Zm9.08,16.345H34.689v-4.54h1.816Zm0-6.356H34.689v-4.54h1.816Zm0-6.356H34.689V13.8h1.816Zm0-6.356H34.689V7.448h1.816Z" transform="translate(-2 -2)"/>
</svg>
