<svg id="brain" xmlns="http://www.w3.org/2000/svg" width="43.949" height="45.547" viewBox="0 0 43.949 45.547">
  <path id="Path_12" data-name="Path 12" d="M216.079,320.8a5.585,5.585,0,0,1-5.579-5.578v-3.833a.562.562,0,1,1,1.125,0v3.833a4.454,4.454,0,0,0,8.908,0v-6.174a5.338,5.338,0,0,1,5.333-5.331.562.562,0,1,1,0,1.125,4.212,4.212,0,0,0-4.208,4.207v6.174A5.578,5.578,0,0,1,216.079,320.8Zm0,0" transform="translate(-190.772 -275.252)" fill="#8b8996"/>
  <path id="Path_13" data-name="Path 13" d="M232.871,21.592a2.579,2.579,0,0,1-4.489-1.733V2.149A2.149,2.149,0,1,1,232.4,3.214l.021.037a3.44,3.44,0,0,1,4.834,4.293,2.422,2.422,0,0,1,.678.315,2.459,2.459,0,0,1-.107,4.163,3.44,3.44,0,0,1-.845,6.244v1.249a2.579,2.579,0,0,1-4.108,2.077Zm0,0" transform="translate(-206.979 0)" fill="#b07c08"/>
  <path id="Path_14" data-name="Path 14" d="M90.761,21.6a2.578,2.578,0,0,1-4.107-2.077V18.269a3.44,3.44,0,0,1-.846-6.244A2.458,2.458,0,0,1,85.7,7.863a2.414,2.414,0,0,1,.677-.315,3.44,3.44,0,0,1,4.834-4.293l.021-.037A2.149,2.149,0,1,1,95.25,2.153v17.71A2.579,2.579,0,0,1,90.761,21.6Zm0,0" transform="translate(-76.272 -0.004)" fill="#fcb61a"/>
  <path id="Path_15" data-name="Path 15" d="M386.438,112.09h-3.576a.562.562,0,0,1,0-1.125h3.576a.562.562,0,1,1,0,1.125Zm0,0" transform="translate(-346.473 -100.566)" fill="#042542"/>
  <path id="Path_16" data-name="Path 16" d="M368.589,40.4a.562.562,0,0,1-.338-1.012l3.574-2.679a.562.562,0,1,1,.674.9l-3.574,2.679A.562.562,0,0,1,368.589,40.4Zm0,0" transform="translate(-333.537 -33.156)" fill="#042542"/>
  <path id="Path_17" data-name="Path 17" d="M372.159,160.486a.559.559,0,0,1-.337-.112l-3.574-2.678a.562.562,0,0,1,.675-.9l3.574,2.679a.562.562,0,0,1-.337,1.012Zm0,0" transform="translate(-333.533 -141.999)" fill="#042542"/>
  <path id="Path_18" data-name="Path 18" d="M4.137,112.09H.562a.562.562,0,0,1,0-1.125H4.137a.562.562,0,0,1,0,1.125Zm0,0" transform="translate(0 -100.566)" fill="#042542"/>
  <path id="Path_19" data-name="Path 19" d="M14.856,160.486a.562.562,0,0,1-.338-1.012l3.574-2.679a.562.562,0,1,1,.675.9l-3.574,2.678a.557.557,0,0,1-.337.112Zm0,0" transform="translate(-12.954 -141.999)" fill="#042542"/>
  <path id="Path_20" data-name="Path 20" d="M18.524,40.541a.558.558,0,0,1-.336-.113L14.614,37.75a.562.562,0,0,1,.674-.9l3.575,2.679a.562.562,0,0,1-.338,1.012Zm0,0" transform="translate(-13.049 -33.302)" fill="#042542"/>
  <path id="Path_21" data-name="Path 21" d="M257.695,133.007a1.1,1.1,0,0,1,.181-1.043.562.562,0,1,0-.877-.7,2.212,2.212,0,0,0-.482,1.53,2.2,2.2,0,0,0-1.1.41.562.562,0,1,0,.657.912,1.115,1.115,0,0,1,.3-.152,1.1,1.1,0,0,1,1.437,1.189.562.562,0,0,0,.486.629.59.59,0,0,0,.072,0,.562.562,0,0,0,.557-.491,2.229,2.229,0,0,0-1.228-2.285Zm0,0" transform="translate(-231.268 -118.767)" fill="#e3e3e3"/>
  <path id="Path_22" data-name="Path 22" d="M263.669,77.327a1.854,1.854,0,0,0-1.986.742.712.712,0,0,1-.352-.036.725.725,0,0,1-.275-.176.562.562,0,1,0-.8.787,1.845,1.845,0,0,0,1.1.542,1.885,1.885,0,0,0,.036.3,1.85,1.85,0,0,0,.194.532.562.562,0,1,0,.985-.542.736.736,0,0,1-.017-.675v0a.732.732,0,0,1,.837-.384.562.562,0,1,0,.279-1.089Zm0,0" transform="translate(-235.717 -70.028)" fill="#e3e3e3"/>
  <path id="Path_23" data-name="Path 23" d="M139.119,133.212a2.214,2.214,0,0,0-1.1-.41,2.214,2.214,0,0,0-.482-1.529.562.562,0,1,0-.878.7,1.088,1.088,0,0,1,.213.441,1.1,1.1,0,0,1-.032.6,2.224,2.224,0,0,0-1.227,2.284.562.562,0,0,0,.557.491.536.536,0,0,0,.072,0,.562.562,0,0,0,.486-.629,1.1,1.1,0,0,1,1.434-1.189,1.125,1.125,0,0,1,.3.153.562.562,0,0,0,.657-.912Zm0,0" transform="translate(-122.886 -118.779)" fill="#e3e3e3"/>
  <path id="Path_24" data-name="Path 24" d="M136.825,63.593a.734.734,0,0,1-.626.212,1.843,1.843,0,0,0-1.16-.763,1.868,1.868,0,0,0-.826.022.562.562,0,1,0,.279,1.089.74.74,0,0,1,.325-.009.731.731,0,0,1,.574.86.756.756,0,0,1-.077.211.562.562,0,1,0,.985.542,1.87,1.87,0,0,0,.23-.835,1.846,1.846,0,0,0,1.1-.542.563.563,0,0,0-.8-.787Zm0,0" transform="translate(-121.249 -57.101)" fill="#e3e3e3"/>
  <path id="Path_25" data-name="Path 25" d="M144.373,229.1a.557.557,0,0,0-.833.065,9.852,9.852,0,0,0-2.049,5.967v0h-10.5v0a9.829,9.829,0,0,0-.537-3.14,9.667,9.667,0,0,0-1.494-2.792.631.631,0,0,0-.075-.075.564.564,0,0,0-.823.767,8.592,8.592,0,0,1,1.327,2.461,8.713,8.713,0,0,1,.477,2.784v6.47a2.488,2.488,0,0,0,2.51,2.518h7.677a2.529,2.529,0,0,0,2.559-2.518v-6.48a8.72,8.72,0,0,1,1.809-5.272A.562.562,0,0,0,144.373,229.1Zm0,0" transform="translate(-115.955 -207.487)" fill="#b9bbc1"/>
  <g id="Group_24" data-name="Group 24" transform="translate(13.917 26.907)">
    <path id="Path_26" data-name="Path 26" d="M202.344,319.68h-7.309a.562.562,0,1,1,0-1.125h7.309a.562.562,0,1,1,0,1.125Zm0,0" transform="translate(-190.164 -315.608)" fill="#8b8996"/>
    <path id="Path_27" data-name="Path 27" d="M151.306,319.68h-2.244a.562.562,0,1,1,0-1.125h2.244a.562.562,0,1,1,0,1.125Zm0,0" transform="translate(-148.5 -315.608)" fill="#8b8996"/>
    <path id="Path_28" data-name="Path 28" d="M252.48,350.109h-2.124a.562.562,0,1,1,0-1.125h2.124a.562.562,0,1,1,0,1.125Zm0,0" transform="translate(-240.3 -343.186)" fill="#8b8996"/>
    <path id="Path_29" data-name="Path 29" d="M156.491,350.109h-7.428a.562.562,0,1,1,0-1.125h7.428a.562.562,0,1,1,0,1.125Zm0,0" transform="translate(-148.5 -343.186)" fill="#8b8996"/>
    <path id="Path_30" data-name="Path 30" d="M437.468,288.238h-2.074a.562.562,0,1,1,0-1.125h2.074a.562.562,0,0,1,0,1.125Zm0,0" transform="translate(-407.998 -287.113)" fill="#8b8996"/>
    <path id="Path_31" data-name="Path 31" d="M437.468,321.43h-2.074a.562.562,0,1,1,0-1.125h2.074a.562.562,0,0,1,0,1.125Zm0,0" transform="translate(-407.998 -317.194)" fill="#8b8996"/>
  </g>
  <path id="Path_32" data-name="Path 32" d="M380.674,281.178v1.555h-3.409a2.811,2.811,0,0,1-2.811-2.811v-.6a2.811,2.811,0,0,1,2.811-2.811h3.409Zm0,0" transform="translate(-339.361 -250.598)" fill="#b07c08"/>
</svg>
