<svg xmlns="http://www.w3.org/2000/svg" width="28.167" height="27.527" viewBox="0 0 28.167 27.527">
  <g id="Group_433" data-name="Group 433" transform="translate(-10.4 -11.3)">
    <path id="Path_1778" data-name="Path 1778" d="M16.837,11.3a1.067,1.067,0,0,0-1.067,1.067v1.565H14.312A3.912,3.912,0,0,0,10.4,17.844V34.915a3.912,3.912,0,0,0,3.912,3.912H34.655a3.912,3.912,0,0,0,3.912-3.912V17.844a3.912,3.912,0,0,0-3.912-3.912H33.2V12.367A1.067,1.067,0,0,0,32.13,11.3a1.1,1.1,0,0,0-1.067,1.067v1.565H17.9V12.367A1.1,1.1,0,0,0,16.837,11.3ZM34.655,36.693H14.312a1.778,1.778,0,0,1-1.778-1.778V22.254h23.9V34.915A1.778,1.778,0,0,1,34.655,36.693ZM31.063,16.066v1a1.067,1.067,0,0,0,1.067,1.067,1.031,1.031,0,0,0,1.067-.994q0-.036,0-.073v-1h1.458a1.778,1.778,0,0,1,1.778,1.778V20.12h-23.9V17.844a1.778,1.778,0,0,1,1.778-1.778H15.77v1a1.031,1.031,0,0,0,.994,1.067h.073A1.067,1.067,0,0,0,17.9,17.061h0v-1Z" transform="translate(0 0)" fill="#042542"/>
    <path id="Path_1779" data-name="Path 1779" d="M44.02,50.761,37.9,56.132l-2.6-2.632a1.067,1.067,0,0,0-1.494,1.494l3.272,3.379a1.1,1.1,0,0,0,.782.32,1.138,1.138,0,0,0,.711-.285l6.828-6.046a1.067,1.067,0,1,0-1.387-1.6Z" transform="translate(-14.949 -25.2)" fill="#042542"/>
  </g>
</svg>
