<svg id="company" xmlns="http://www.w3.org/2000/svg" width="61.818" height="62" viewBox="0 0 61.818 62">
  <path id="Path_68" data-name="Path 68" d="M0,60v54.574H14.489L30.909,60Z" transform="translate(0 -52.756)" fill="#b07c08"/>
  <path id="Path_69" data-name="Path 69" d="M286.909,60H256l16.42,54.574h14.489Z" transform="translate(-225.091 -52.756)" fill="#b07c08"/>
  <rect id="Rectangle_114" data-name="Rectangle 114" width="3" height="4" transform="translate(6.023 14)" fill="#fcb61a"/>
  <rect id="Rectangle_115" data-name="Rectangle 115" width="3" height="4" transform="translate(6.023 21)" fill="#fcb61a"/>
  <rect id="Rectangle_116" data-name="Rectangle 116" width="3" height="4" transform="translate(6.023 29)" fill="#fcb61a"/>
  <rect id="Rectangle_117" data-name="Rectangle 117" width="3" height="3" transform="translate(6.023 37)" fill="#fcb61a"/>
  <rect id="Rectangle_118" data-name="Rectangle 118" width="4" height="4" transform="translate(52.023 14)" fill="#fcb61a"/>
  <rect id="Rectangle_119" data-name="Rectangle 119" width="4" height="4" transform="translate(52.023 21)" fill="#fcb61a"/>
  <rect id="Rectangle_120" data-name="Rectangle 120" width="4" height="4" transform="translate(52.023 29)" fill="#fcb61a"/>
  <rect id="Rectangle_121" data-name="Rectangle 121" width="4" height="3" transform="translate(52.023 37)" fill="#fcb61a"/>
  <rect id="Rectangle_122" data-name="Rectangle 122" width="3" height="3" transform="translate(6.023 44)" fill="#fcb61a"/>
  <rect id="Rectangle_123" data-name="Rectangle 123" width="4" height="3" transform="translate(52.023 44)" fill="#fcb61a"/>
  <path id="Path_70" data-name="Path 70" d="M219.665,0h-16.42L196,30.909l16.42,30.909h7.244Z" transform="translate(-172.335)" fill="#fcb61a"/>
  <path id="Path_71" data-name="Path 71" d="M120,0V61.818h7.244l9.176-7.244V0Z" transform="translate(-105.511)" fill="#fcb61a"/>
  <path id="Path_72" data-name="Path 72" d="M238.8,60h-9.176L226,65.373l3.622,5.373H238.8Z" transform="translate(-198.713 -52.756)" fill="#fff"/>
  <rect id="Rectangle_124" data-name="Rectangle 124" width="10" height="11" transform="translate(21.023 7)" fill="#fff"/>
  <path id="Path_73" data-name="Path 73" d="M238.8,180h-9.176L226,185.373l3.622,5.373H238.8Z" transform="translate(-198.713 -158.267)" fill="#fff"/>
  <rect id="Rectangle_125" data-name="Rectangle 125" width="10" height="12" transform="translate(21.023 21)" fill="#fff"/>
  <path id="Path_74" data-name="Path 74" d="M238.8,308.055V299h-9.176L226,311.678Z" transform="translate(-198.713 -262.899)" fill="#fff"/>
  <path id="Path_75" data-name="Path 75" d="M189.176,299H180v9.055l9.176,3.622Z" transform="translate(-158.267 -262.899)" fill="#fff"/>
  <path id="Path_76" data-name="Path 76" d="M220.83,374,216,382.331l4.83,8.331h9.176V374Z" transform="translate(-189.921 -328.844)" fill="#fcb61a"/>
  <rect id="Rectangle_126" data-name="Rectangle 126" width="10" height="17" transform="translate(21.023 45)" fill="#fcb61a"/>
</svg>
