<svg id="Group_443" data-name="Group 443" xmlns="http://www.w3.org/2000/svg" width="67.244" height="56.269" viewBox="0 0 67.244 56.269">
  <path id="Path_1844" data-name="Path 1844" d="M17.463,87.994a1.509,1.509,0,0,0,1.155.54c.031,0,.063,0,.094,0a1.51,1.51,0,0,0,1.172-.69l4.046-6.3a1.5,1.5,0,0,0-.171-1.843l5.267-7.856-.625-.419-5.279,7.873a1.5,1.5,0,0,0-1.726.619L18.458,84.49,14.5,79.759a1.5,1.5,0,0,0-1-.531,1.455,1.455,0,0,0-.459-.075H5.777l-.045,0a3.58,3.58,0,0,0-1.57.4A6.354,6.354,0,0,0,1.295,83.1,24.918,24.918,0,0,0,0,92.145c0,1.1.036,2.3.113,3.606a1.505,1.505,0,0,0,1.5,1.417l.089,0a1.506,1.506,0,0,0,1.415-1.592c-.074-1.251-.107-2.392-.107-3.429C3,87.586,3.67,85.026,4.322,83.691v28.231a2.327,2.327,0,0,0,4.654,0V94.933h.872v16.988a2.327,2.327,0,0,0,4.654,0V84.452Z" transform="translate(0 -57.979)" fill="#1b1a1b"/>
  <circle id="Ellipse_141" data-name="Ellipse 141" cx="4.234" cy="4.234" r="4.234" transform="translate(5.178 11.634)" fill="#1b1a1b"/>
  <path id="Path_1845" data-name="Path 1845" d="M107.26,0H57.577V9.5h.941V.94h47.8V27.1H71.429v.941H107.26Z" transform="translate(-46.742)" fill="#1b1a1b"/>
  <circle id="Ellipse_142" data-name="Ellipse 142" cx="4.234" cy="4.234" r="4.234" transform="translate(21.878 36.113)" fill="#1b1a1b"/>
  <circle id="Ellipse_143" data-name="Ellipse 143" cx="4.234" cy="4.234" r="4.234" transform="translate(37.78 36.113)" fill="#1b1a1b"/>
  <path id="Path_1846" data-name="Path 1846" d="M93.424,247.126v5.707H103.6v-5.7a8.125,8.125,0,0,1,.335.8,18.5,18.5,0,0,1,.885,4.9H108.1a15.826,15.826,0,0,1,1.223-5.707v5.707h10.18v-5.7a8.175,8.175,0,0,1,.335.8,18.5,18.5,0,0,1,.885,4.9h3.278a15.826,15.826,0,0,1,1.223-5.707v5.707h10.18v-5.7a8.177,8.177,0,0,1,.335.8,18.5,18.5,0,0,1,.885,4.9h3.016c-.251-3.991-1.047-6.407-2.068-7.967a5.313,5.313,0,0,0-2.01-1.873,3.584,3.584,0,0,0-1.548-.4c-.022,0-.044,0-.066,0h-7.271c-.025,0-.05,0-.075,0a3.578,3.578,0,0,0-1.54.4,6.111,6.111,0,0,0-2.7,3.152,9.043,9.043,0,0,0-.69-1.279,5.314,5.314,0,0,0-2.01-1.873,3.584,3.584,0,0,0-1.548-.4c-.022,0-.044,0-.066,0H110.78c-.025,0-.05,0-.075,0a3.578,3.578,0,0,0-1.54.4,6.111,6.111,0,0,0-2.7,3.152,9.042,9.042,0,0,0-.69-1.279,5.314,5.314,0,0,0-2.01-1.873,3.584,3.584,0,0,0-1.548-.4c-.022,0-.044,0-.066,0H94.878c-.025,0-.05,0-.075,0a3.58,3.58,0,0,0-1.54.4,6.348,6.348,0,0,0-2.867,3.546,20.717,20.717,0,0,0-1.211,6.295H92.2A15.836,15.836,0,0,1,93.424,247.126Z" transform="translate(-72.401 -196.934)" fill="#1b1a1b"/>
  <circle id="Ellipse_144" data-name="Ellipse 144" cx="4.234" cy="4.234" r="4.234" transform="translate(53.683 36.113)" fill="#1b1a1b"/>
</svg>
