<svg xmlns="http://www.w3.org/2000/svg" width="71.819" height="41.66" viewBox="0 0 71.819 41.66">
  <g id="Group_441" data-name="Group 441" transform="translate(-25.365 -50.933)">
    <path id="Path_1804" data-name="Path 1804" d="M32.16,223.685a1.245,1.245,0,0,0-1.245-1.245h-7.5a1.245,1.245,0,0,0-1.245,1.245v3.379a.955.955,0,0,0,.948.961h8.087a.955.955,0,0,0,.955-.955Z" transform="translate(42.892 -171.507)" fill="#1b1a1b"/>
    <path id="Path_1805" data-name="Path 1805" d="M23.415,461.748h7.5A1.245,1.245,0,0,0,32.16,460.5v-3.379a.955.955,0,0,0-.955-.955H23.125a.955.955,0,0,0-.955.955h0V460.5A1.245,1.245,0,0,0,23.415,461.748Z" transform="translate(42.892 -369.538)" fill="#1b1a1b"/>
    <rect id="Rectangle_358" data-name="Rectangle 358" width="9.992" height="25.644" rx="4.996" transform="translate(65.062 58.75)" fill="#1b1a1b"/>
    <path id="Path_1806" data-name="Path 1806" d="M107.005,297.229h3.406a.655.655,0,0,0,.655-.655h0v-24a1.353,1.353,0,0,0-1.352-1.353h-6.123a1.353,1.353,0,0,0-1.352,1.353v31.122a1.352,1.352,0,0,0,1.352,1.352h6.123a1.352,1.352,0,0,0,1.352-1.352h0v-3.571a.655.655,0,0,0-.655-.655h-3.453a1.121,1.121,0,0,1-1.12-1.122q0-.054.005-.108A1.153,1.153,0,0,1,107.005,297.229Zm-2.12-14.319a2.073,2.073,0,1,1,2.073,2.073h0A2.073,2.073,0,0,1,104.885,282.91Z" transform="translate(-24.949 -212.837)" fill="#1b1a1b"/>
    <path id="Path_1807" data-name="Path 1807" d="M175.887,305.046h6.432a1.2,1.2,0,0,0,1.2-1.2V272.417a1.2,1.2,0,0,0-1.2-1.2h-6.432a1.2,1.2,0,0,0-1.2,1.2v31.432A1.2,1.2,0,0,0,175.887,305.046Zm1.141-24.876a1.051,1.051,0,0,1,1.051-1.051h2.048a1.051,1.051,0,0,1,1.051,1.051h0v4.457a1.051,1.051,0,0,1-1.051,1.051h-2.048a1.051,1.051,0,0,1-1.051-1.051h0Z" transform="translate(-86.333 -212.837)" fill="#1b1a1b"/>
    <path id="Path_1808" data-name="Path 1808" d="M211.528,147.287a3.519,3.519,0,0,0,3.519-3.519h0v-7.306a.609.609,0,0,0-.841-.561l-8.709,3.623a4.027,4.027,0,0,1-1.106.3,3.923,3.923,0,0,1-1.955-.276l-8.755-3.642a.609.609,0,0,0-.841.561v7.306a3.518,3.518,0,0,0,3.517,3.519h15.171Z" transform="translate(-162.501 -54.695)" fill="#1b1a1b"/>
    <path id="Path_1809" data-name="Path 1809" d="M158.967,33.456a2.436,2.436,0,0,0,1.873,0l10.167-4.233,3.494-1.454v5.947a.744.744,0,1,0,1.487.055q0-.028,0-.055V26.521a1,1,0,0,0-.622-.982L160.84,19.5a2.443,2.443,0,0,0-1.873,0l-14.519,6.042a1.015,1.015,0,0,0,0,1.875l4.351,1.809Z" transform="translate(-118.456 50.022)" fill="#1b1a1b"/>
    <path id="Path_1810" data-name="Path 1810" d="M435.478,182.868v2.113a.627.627,0,0,0,.627.626H438.5a.627.627,0,0,0,.627-.626v-2.113a1.827,1.827,0,0,0-3.646-.228A1.794,1.794,0,0,0,435.478,182.868Z" transform="translate(-380.513 -95.194)" fill="#1b1a1b"/>
  </g>
</svg>
