<svg xmlns="http://www.w3.org/2000/svg" width="64" height="54" viewBox="0 0 64 54">
  <g id="Group_440" data-name="Group 440" transform="translate(-1 -6)">
    <g id="Group_438" data-name="Group 438">
      <path id="Path_1800" data-name="Path 1800" d="M35.7,36.1a1.075,1.075,0,0,1-1,1H11.2a1.075,1.075,0,0,1-1-1,12.8,12.8,0,0,1,25.6-.2A.31.31,0,0,0,35.7,36.1Z" fill="#1b1a1b"/>
      <path id="Path_1801" data-name="Path 1801" d="M16.5,15.1a6.4,6.4,0,1,1,6.4,6.4A6.445,6.445,0,0,1,16.5,15.1Z" fill="#1b1a1b"/>
    </g>
    <path id="Path_1802" data-name="Path 1802" d="M51.6,6c-7.4,0-13.4,4.9-13.4,10.8a9.664,9.664,0,0,0,3,6.8l-2.4,7a1.025,1.025,0,0,0,1.5,1.2l7-4.7a15.933,15.933,0,0,0,4.3.6C59,27.6,65,22.7,65,16.8,65,10.8,59,6,51.6,6Zm2.1,13.9H46.3a1,1,0,0,1,0-2h7.4a1,1,0,0,1,0,2Zm3.1-4.7H46.4a1,1,0,0,1,0-2H56.9a.945.945,0,0,1,1,1A1.028,1.028,0,0,1,56.8,15.2Z" fill="#1b1a1b"/>
    <g id="Group_439" data-name="Group 439">
      <path id="Path_1803" data-name="Path 1803" d="M44.9,54.3A5.7,5.7,0,0,1,39.2,60a5.763,5.763,0,0,1-5.7-5.7,5.7,5.7,0,0,1,4.8-5.6V45.8a1.538,1.538,0,0,0-1.5-1.5H24v4.4A5.694,5.694,0,0,1,23,60a5.763,5.763,0,0,1-5.7-5.7A5.688,5.688,0,0,1,22,48.7V44.3H9.1a1.538,1.538,0,0,0-1.5,1.5v2.9a5.6,5.6,0,1,1-2,0v-3a3.543,3.543,0,0,1,3.5-3.5H22V39.1h2v3.1H36.8a3.543,3.543,0,0,1,3.5,3.5v3A5.779,5.779,0,0,1,44.9,54.3Z" fill="#1b1a1b"/>
    </g>
  </g>
</svg>
