<svg xmlns="http://www.w3.org/2000/svg" width="39.182" height="43.309" viewBox="0 0 39.182 43.309">
  <g id="Group_444" data-name="Group 444" transform="translate(-13 -8)">
    <path id="Path_1847" data-name="Path 1847" d="M15.578,8a2.578,2.578,0,1,0,0,5.156H42.9V8ZM13,14.413V43.576a2.572,2.572,0,0,0,2.578,2.578h1.547V15.218H15.578A4.577,4.577,0,0,1,13,14.413Zm6.187.805V46.153H31.336L42.9,23.967V15.218Zm4.963,3.609h.1c.032,0,.064,0,.1,0H36.717a1.031,1.031,0,0,1,.029,2.062h-12.4a1.036,1.036,0,0,1-.193-2.062Zm2.578,4.64h.1c.032,0,.064,0,.1,0h7.218a1.031,1.031,0,0,1,.029,2.062H26.921a1.036,1.036,0,0,1-.193-2.062Zm18.754,0L33.108,47.185l.516,4.125,4.125-1.547,9.812-18.8,2.191,1.177L45.595,40a1.038,1.038,0,0,0,1.837.967l4.64-8.765a1.072,1.072,0,0,0-.435-1.4l-3.126-1.66,1.611-3.094ZM42.9,44.317l-.951,1.837H42.9Z" fill="#1b1a1b"/>
  </g>
</svg>
