<svg xmlns="http://www.w3.org/2000/svg" width="48.981" height="48.981" viewBox="0 0 48.981 48.981">
  <g id="Group_445" data-name="Group 445" transform="translate(0)">
    <path id="Path_1848" data-name="Path 1848" d="M48.474,23.185,25.192,6.6c-.023-.016-.046-.03-.069-.045V4.492c2-1.088,3.99,1.305,5.986.071V.364c-2,1.234-3.99-1.159-5.986-.071V.228A.227.227,0,0,0,24.9,0h-.81a.228.228,0,0,0-.228.228V6.554c-.023.014-.046.029-.069.045L.508,23.185a1.208,1.208,0,0,0,.7,2.192H3.5V45.2H3.36a1,1,0,0,0-1,1V47.47a1,1,0,0,0,1,1H13.792V47.285a1.173,1.173,0,0,1,1.171-1.171h.36V44.8a1.172,1.172,0,0,1,1.171-1.171h.657V42.449a1.093,1.093,0,0,1,1.091-1.092h.994V30.741a1.007,1.007,0,0,1,1.007-1.007h8.5a1.007,1.007,0,0,1,1.008,1.007V41.358h.994a1.092,1.092,0,0,1,1.091,1.092v1.179h.657A1.172,1.172,0,0,1,33.659,44.8v1.316h.36a1.172,1.172,0,0,1,1.171,1.171v1.183H45.622a1,1,0,0,0,1-1V46.2a1,1,0,0,0-1-1h-.134V25.378h2.286a1.208,1.208,0,0,0,.7-2.192Zm-37.687,15.5a.661.661,0,0,1-.661.661H7.91a.661.661,0,0,1-.661-.661V36.525a.661.661,0,0,1,.661-.661h2.216a.661.661,0,0,1,.661.661Zm0-5.7a.661.661,0,0,1-.661.661H7.91a.661.661,0,0,1-.661-.661V30.83a.661.661,0,0,1,.661-.661h2.216a.661.661,0,0,1,.661.661Zm6,5.7a.661.661,0,0,1-.661.661H13.906a.661.661,0,0,1-.661-.661V36.525a.661.661,0,0,1,.661-.661h2.216a.661.661,0,0,1,.661.661Zm0-5.7a.661.661,0,0,1-.661.661H13.906a.661.661,0,0,1-.661-.661V30.83a.661.661,0,0,1,.661-.661h2.216a.661.661,0,0,1,.661.661Zm7.708-7.82a5.657,5.657,0,1,1,5.657-5.657A5.657,5.657,0,0,1,24.491,25.166ZM35.736,38.682a.661.661,0,0,1-.661.661H32.859a.661.661,0,0,1-.66-.661V36.525a.661.661,0,0,1,.66-.661h2.216a.661.661,0,0,1,.661.661Zm0-5.7a.661.661,0,0,1-.661.661H32.859a.661.661,0,0,1-.66-.661V30.83a.661.661,0,0,1,.66-.661h2.216a.661.661,0,0,1,.661.661Zm6,5.7a.661.661,0,0,1-.661.661H38.855a.661.661,0,0,1-.661-.661V36.525a.661.661,0,0,1,.661-.661h2.216a.661.661,0,0,1,.661.661Zm0-5.7a.661.661,0,0,1-.661.661H38.855a.661.661,0,0,1-.661-.661V30.83a.661.661,0,0,1,.661-.661h2.216a.661.661,0,0,1,.661.661ZM28.222,19.129a.678.678,0,0,1,0,1.355H24.427a.655.655,0,0,1-.07,0,.677.677,0,0,1-.608-.674V16.011a.678.678,0,0,1,1.355,0v3.117ZM18.242,42.164h12.5a.285.285,0,0,1,.285.286v1.179H17.957V42.449A.286.286,0,0,1,18.242,42.164Zm-1.748,2.27H32.488a.365.365,0,0,1,.365.365v1.316H16.129V44.8A.365.365,0,0,1,16.494,44.434Zm17.889,2.851v1.331a.365.365,0,0,1-.365.365H14.964a.365.365,0,0,1-.365-.365V47.285a.365.365,0,0,1,.365-.365H34.018A.365.365,0,0,1,34.384,47.285ZM22.929,37.322a.824.824,0,1,1,.823-.824A.824.824,0,0,1,22.929,37.322Zm3.119,0a.824.824,0,1,1,.824-.824A.824.824,0,0,1,26.048,37.322Z" fill="#1b1a1b"/>
  </g>
</svg>
