<svg id="hierarchy" xmlns="http://www.w3.org/2000/svg" width="41.547" height="41.547" viewBox="0 0 41.547 41.547">
  <path id="Path_33" data-name="Path 33" d="M91.809,260.652v6.086H89.375v-3.652H77.122v3.652H74.687v-3.652H62.434v3.652H60v-6.086H74.687V257h2.434v3.652Z" transform="translate(-55.131 -236.146)" fill="#b9bbc1"/>
  <path id="Path_34" data-name="Path 34" d="M271.9,260.652v6.086H269.47v-3.652H257.217v3.652H256V257h1.217v3.652Z" transform="translate(-235.227 -236.146)" fill="#8b8996"/>
  <path id="Path_35" data-name="Path 35" d="M200.869,0a4.869,4.869,0,1,0,4.869,4.869A4.875,4.875,0,0,0,200.869,0Z" transform="translate(-180.095)" fill="#fcb61a"/>
  <path id="Path_36" data-name="Path 36" d="M260.869,4.869A4.875,4.875,0,0,1,256,9.737V0A4.875,4.875,0,0,1,260.869,4.869Z" transform="translate(-235.227)" fill="#b07c08"/>
  <path id="Path_37" data-name="Path 37" d="M161.955,120h-1.217l-1.217,7.3L158.3,120h-1.217A6.093,6.093,0,0,0,151,126.086v6.248h17.041v-6.248A6.093,6.093,0,0,0,161.955,120Z" transform="translate(-138.747 -110.263)" fill="#b9bbc1"/>
  <path id="Path_38" data-name="Path 38" d="M264.52,126.086v6.248H256V127.3l1.217-7.3h1.217A6.093,6.093,0,0,1,264.52,126.086Z" transform="translate(-235.227 -110.263)" fill="#8b8996"/>
  <path id="Path_39" data-name="Path 39" d="M241,120h2.434v7.3H241Z" transform="translate(-221.444 -110.263)" fill="#fcb61a"/>
  <path id="Path_40" data-name="Path 40" d="M256,120h1.217v7.3H256Z" transform="translate(-235.227 -110.263)" fill="#b07c08"/>
  <path id="Path_41" data-name="Path 41" d="M187.086,362a6.086,6.086,0,1,0,6.086,6.086A6.093,6.093,0,0,0,187.086,362Z" transform="translate(-166.313 -332.625)" fill="#fcb61a"/>
  <path id="Path_42" data-name="Path 42" d="M262.086,368.086A6.093,6.093,0,0,1,256,374.172V362A6.093,6.093,0,0,1,262.086,368.086Z" transform="translate(-235.227 -332.625)" fill="#b07c08"/>
  <path id="Path_43" data-name="Path 43" d="M368.086,362a6.086,6.086,0,1,0,6.086,6.086A6.093,6.093,0,0,0,368.086,362Z" transform="translate(-332.625 -332.625)" fill="#fcb61a"/>
  <path id="Path_44" data-name="Path 44" d="M6.086,362a6.086,6.086,0,1,0,6.086,6.086A6.093,6.093,0,0,0,6.086,362Z" transform="translate(0 -332.625)" fill="#fcb61a"/>
  <g id="Group_25" data-name="Group 25" transform="translate(6.086 29.375)">
    <path id="Path_45" data-name="Path 45" d="M81.086,368.086A6.093,6.093,0,0,1,75,374.172V362A6.093,6.093,0,0,1,81.086,368.086Z" transform="translate(-75 -362)" fill="#b07c08"/>
    <path id="Path_46" data-name="Path 46" d="M443.086,368.086A6.093,6.093,0,0,1,437,374.172V362A6.093,6.093,0,0,1,443.086,368.086Z" transform="translate(-407.625 -362)" fill="#b07c08"/>
  </g>
</svg>
