<svg id="horse" xmlns="http://www.w3.org/2000/svg" width="29.472" height="45.547" viewBox="0 0 29.472 45.547">
  <g id="Group_12" data-name="Group 12" transform="translate(8.834 33.448)">
    <path id="Path_2" data-name="Path 2" d="M179.062,378.851a.712.712,0,0,0,0-1.423.712.712,0,1,1,0-1.423h11.387a.712.712,0,1,1,0,1.423.712.712,0,0,0,0,1.423.712.712,0,1,1,0,1.423H179.062a.712.712,0,1,1,0-1.423Z" transform="translate(-178.35 -376.004)" fill="#5c546a"/>
  </g>
  <g id="Group_13" data-name="Group 13" transform="translate(0 0)">
    <path id="Path_3" data-name="Path 3" d="M107.087,17.437a.791.791,0,0,0-.234-.564,1.72,1.72,0,0,1,0-2.431l8.464-8.464A5.875,5.875,0,0,1,115.24.436.711.711,0,0,1,116.474.3c1.026,1.436,3.086,2.746,5.472,4.263,5.548,3.527,12.453,7.917,12.453,17.5,0,8.067-4.3,11.571-5.621,12.453a2.127,2.127,0,0,1-1.184.357H115.261a2.124,2.124,0,0,1-1.81-1l-1.395-2.232a4.986,4.986,0,0,1,.6-6.055l7.513-7.982a20.157,20.157,0,0,1-2.846.192c-2.693,0-3.952,1.389-5.063,2.615a9.578,9.578,0,0,1-1.115,1.107,1.43,1.43,0,0,1-1.89-.109l-2.4-2.4a.712.712,0,0,1,0-1.007A.79.79,0,0,0,107.087,17.437Z" transform="translate(-106.35 -0.001)" fill="#fcb61a"/>
  </g>
  <g id="Group_14" data-name="Group 14" transform="translate(9.547 0.006)">
    <path id="Path_4" data-name="Path 4" d="M117.736,19.28c0-11.031-9.721-10.972-11.385-19.209a.708.708,0,0,1,.578.292c1.026,1.436,3.086,2.746,5.472,4.263,5.548,3.527,12.453,7.917,12.453,17.5,0,8.067-4.3,11.571-5.621,12.453a2.127,2.127,0,0,1-1.184.357h-8.14C109.908,26.456,117.736,26.609,117.736,19.28Z" transform="translate(-106.351 -0.071)" fill="#b07c08"/>
  </g>
  <g id="Group_15" data-name="Group 15" transform="translate(1.005 36.295)">
    <path id="Path_5" data-name="Path 5" d="M91.119,411.3l3.758-3.132a.712.712,0,0,1,.456-.165h18.5a.711.711,0,0,1,.456.165l3.757,3.131a2.129,2.129,0,0,1,.769,1.64v3.6a.711.711,0,0,1-.712.712H91.063a.711.711,0,0,1-.712-.712v-3.6A2.129,2.129,0,0,1,91.119,411.3Z" transform="translate(-90.351 -408.004)" fill="#b9bbc1"/>
  </g>
  <g id="Group_17" data-name="Group 17" transform="translate(8.834 8.911)">
    <g id="Group_16" data-name="Group 16" transform="translate(0)">
      <path id="Path_6" data-name="Path 6" d="M263.332,102.643a.712.712,0,0,0,0-1.423,2.532,2.532,0,0,1-1.124-.422,3.233,3.233,0,0,0-3.487-.2.712.712,0,1,0,.681,1.249c.88-.48,1.374-.209,2.122.2A3.708,3.708,0,0,0,263.332,102.643Z" transform="translate(-258.35 -100.167)" fill="#fff"/>
    </g>
  </g>
  <g id="Group_19" data-name="Group 19" transform="translate(10.257 9.252)">
    <g id="Group_18" data-name="Group 18" transform="translate(0)">
      <path id="Path_7" data-name="Path 7" d="M291.062,106.139a.711.711,0,0,0,.712-.712v-.712a.712.712,0,1,0-1.423,0v.712A.711.711,0,0,0,291.062,106.139Z" transform="translate(-290.35 -104.004)" fill="#fff"/>
    </g>
  </g>
  <g id="Group_20" data-name="Group 20" transform="translate(15.239 36.295)">
    <path id="Path_8" data-name="Path 8" d="M90.351,408H99.6a.711.711,0,0,1,.456.165l3.757,3.131a2.129,2.129,0,0,1,.769,1.64v3.6a.711.711,0,0,1-.712.712H90.351Z" transform="translate(-90.351 -408.004)" fill="#8b8996"/>
  </g>
  <g id="Group_21" data-name="Group 21" transform="translate(1.005 40.565)">
    <path id="Path_9" data-name="Path 9" d="M118.817,456.671v3.6a.711.711,0,0,1-.712.712H91.063a.711.711,0,0,1-.712-.712v-3.6A2.121,2.121,0,0,1,90.47,456H118.7A2.119,2.119,0,0,1,118.817,456.671Z" transform="translate(-90.351 -456.004)" fill="#8b8996"/>
  </g>
  <g id="Group_22" data-name="Group 22" transform="translate(15.239 40.565)">
    <path id="Path_10" data-name="Path 10" d="M90.351,456h14.114a2.121,2.121,0,0,1,.119.667v3.6a.711.711,0,0,1-.712.712H90.351Z" transform="translate(-90.351 -456.004)" fill="#5c546a"/>
  </g>
  <g id="Group_23" data-name="Group 23" transform="translate(12.309 9.963)">
    <path id="Path_11" data-name="Path 11" d="M201.092,119.639c-.138.02-.288.037-.437.055a5.977,5.977,0,0,0,4.1-2.692,4.911,4.911,0,0,0,.66-4.022.712.712,0,0,1,1.322-.529,6.27,6.27,0,0,1-.774,5.3,7.763,7.763,0,0,1-6.238,3.5l-.054,0a.661.661,0,0,1-.082-.016Z" transform="translate(-199.587 -112.003)" fill="#fff"/>
  </g>
</svg>
