<svg xmlns="http://www.w3.org/2000/svg" width="25.581" height="25.581" viewBox="0 0 25.581 25.581">
  <g id="Group_435" data-name="Group 435" transform="translate(-6.75 -6.75)">
    <path id="Path_1782" data-name="Path 1782" d="M10.5,7A3.5,3.5,0,1,0,14,10.5,3.508,3.508,0,0,0,10.5,7Zm0,1.167A2.333,2.333,0,1,1,8.167,10.5,2.324,2.324,0,0,1,10.5,8.167Zm15.165,6.416a5.656,5.656,0,0,0-4.083,1.7v-.538A.606.606,0,0,0,21,15.166H16.332a.606.606,0,0,0-.583.583V31.5a.606.606,0,0,0,.583.583H21.29a.606.606,0,0,0,.583-.583V22.748a3.371,3.371,0,0,1,.574-1.914,1.474,1.474,0,0,1,1.176-.711h.583a1.474,1.474,0,0,1,1.176.711,3.372,3.372,0,0,1,.574,1.914V31.5a.606.606,0,0,0,.583.583H31.5a.606.606,0,0,0,.583-.583V21.29a7.275,7.275,0,0,0-1.4-4.848C29.638,15.226,27.968,14.583,25.665,14.583Zm-17.553.583a.6.6,0,0,0-.529.583V31.5a.606.606,0,0,0,.583.583h4.958a.606.606,0,0,0,.583-.583V15.749a.606.606,0,0,0-.583-.583Zm17.553.583c2.092,0,3.341.538,4.119,1.449a6.2,6.2,0,0,1,1.13,4.092v9.624H27.123V22.748a4.46,4.46,0,0,0-.793-2.588,2.659,2.659,0,0,0-2.123-1.2h-.583a2.659,2.659,0,0,0-2.123,1.2,4.46,4.46,0,0,0-.793,2.588v3.5h-.346a.584.584,0,1,0,.055,1.167h.292v1.167h-.346a.584.584,0,1,0,.055,1.167h.292v1.167H16.916V16.332h3.5v1.458a.583.583,0,0,0,1.039.365C22.433,16.934,23.477,15.749,25.665,15.749ZM8.75,16.332h3.791v9.916h-.346a.584.584,0,1,0,.055,1.167h.292v1.167h-.346a.584.584,0,1,0,.055,1.167h.292v1.167H8.75Z" stroke="#000" stroke-width="0.5"/>
  </g>
</svg>
