<svg xmlns="http://www.w3.org/2000/svg" width="33.35" height="34.077" viewBox="0 0 33.35 34.077">
  <path id="Path_1780" data-name="Path 1780" d="M36.873,30.154a.9.9,0,0,0-.585-.778l-5.184-1.9q.258-.334.5-.678a15.57,15.57,0,0,0-.387-18.085,3.128,3.128,0,0,0-3.2-4.757,3.084,3.084,0,0,0-1.41.66A15.3,15.3,0,0,0,6.232,9.2a15.549,15.549,0,0,0,.129,17.719c-.043.057-.09.111-.129.172a3.211,3.211,0,0,0,3.229,4.987h0a3.164,3.164,0,0,0,1.6-.8,15.312,15.312,0,0,0,16.675-.549l1.941,5.284a.9.9,0,0,0,.778.585h.065a.9.9,0,0,0,.789-.474l1.345-2.511L35.043,36a.9.9,0,1,0,1.27-1.27L33.9,32.35,36.414,31A.9.9,0,0,0,36.873,30.154Zm-11.946-16.1c4.484.814,7.419,2.447,7.419,3.946s-2.935,3.139-7.419,3.946A37.761,37.761,0,0,0,25.134,18,37.761,37.761,0,0,0,24.926,14.053Zm3.415-8.341a1.305,1.305,0,0,1,.987.215,1.349,1.349,0,0,1,.359,1.866,1.31,1.31,0,0,1-.879.552,1.338,1.338,0,0,1-.484-2.63ZM25.608,6.1a3.121,3.121,0,0,0,3.544,4.007h0a3.1,3.1,0,0,0,.718-.222,13.67,13.67,0,0,1,2.267,4.879A18.593,18.593,0,0,0,24.7,12.188a18.712,18.712,0,0,0-2.651-7.509A13.508,13.508,0,0,1,25.6,6.1ZM14.433,16.453l.151-.022a3.483,3.483,0,0,0,2.26-1.471,3.523,3.523,0,0,0,.563-1.4c.481-.022.965-.032,1.464-.032a35.7,35.7,0,0,1,4.226.248A35.7,35.7,0,0,1,23.344,18a35.7,35.7,0,0,1-.248,4.226,35.7,35.7,0,0,1-4.226.248,35.7,35.7,0,0,1-4.226-.248A35.7,35.7,0,0,1,14.4,18C14.393,17.476,14.411,16.959,14.433,16.453Zm-.176-1.794h0a1.7,1.7,0,0,1-1.288-.28,1.733,1.733,0,0,1,.969-3.171,1.7,1.7,0,0,1,.976.309,1.751,1.751,0,0,1,.445,2.422,1.7,1.7,0,0,1-1.1.728Zm4.61-10.135c1.507,0,3.139,2.935,3.946,7.419a37.762,37.762,0,0,0-3.946-.208c-.538,0-1.076,0-1.618.043a3.51,3.51,0,0,0-1.313-1.726,3.575,3.575,0,0,0-.524-.3C16.3,6.534,17.626,4.525,18.867,4.525ZM7.71,10.222a13.449,13.449,0,0,1,7.968-5.528A14.712,14.712,0,0,0,13.636,9.44a1.778,1.778,0,0,0-.334.047,3.523,3.523,0,0,0-2.87,3.254A15.273,15.273,0,0,0,5.7,14.71,13.689,13.689,0,0,1,7.71,10.222Zm3.075,4.305a3.42,3.42,0,0,0,1.88,1.7c-.029.592-.05,1.184-.05,1.772a37.761,37.761,0,0,0,.208,3.946C8.338,21.135,5.4,19.5,5.4,18c-.014-1.263,2.063-2.615,5.381-3.5Zm-.753,15.2a1.4,1.4,0,0,1-1.939.367l-.013-.009A1.435,1.435,0,0,1,7.721,28.1a1.4,1.4,0,0,1,1.952-.359A1.435,1.435,0,0,1,10.031,29.724Zm1.941,0a3.229,3.229,0,0,0-1.281-3.451,3.171,3.171,0,0,0-2.4-.52,3.22,3.22,0,0,0-.456.122,13.61,13.61,0,0,1-2.1-4.553,19.207,19.207,0,0,0,7.319,2.511,18.5,18.5,0,0,0,2.583,7.448,13.541,13.541,0,0,1-3.674-1.561Zm6.9,1.765c-1.507,0-3.139-2.935-3.946-7.419a37.76,37.76,0,0,0,3.946.208,37.76,37.76,0,0,0,3.946-.208c-.825,4.477-2.443,7.415-3.95,7.415Zm8.761-5.3a.9.9,0,0,0-1.152,1.152l.6,1.618a13.412,13.412,0,0,1-5.023,2.353,18.4,18.4,0,0,0,2.622-7.5,18.409,18.409,0,0,0,7.458-2.59,13.687,13.687,0,0,1-2.02,4.549,12.07,12.07,0,0,1-.8,1.04Zm4.362,5.148a.9.9,0,0,0-.359.359l-.972,1.794-1.83-4.947L33.8,30.373Z" transform="translate(-3.525 -2.514)" fill="#042542"/>
</svg>
