<svg xmlns="http://www.w3.org/2000/svg" xmlns:xlink="http://www.w3.org/1999/xlink" width="152.661" height="165.89" viewBox="0 0 152.661 165.89">
  <defs>
    <linearGradient id="linear-gradient" x1="0.116" y1="0.155" x2="0.884" y2="0.845" gradientUnits="objectBoundingBox">
      <stop offset="0" stop-color="#fff"/>
      <stop offset="0.239" stop-color="#cbcaca"/>
      <stop offset="0.487" stop-color="#949292"/>
      <stop offset="0.765" stop-color="#565353"/>
      <stop offset="1"/>
    </linearGradient>
  </defs>
  <g id="Group_699" data-name="Group 699" transform="translate(-288.849 -3268.413)">
    <rect id="Rectangle_390" data-name="Rectangle 390" width="118.666" height="131.565" transform="translate(308.716 3291.385)" fill="#fff"/>
    <path id="Path_1923" data-name="Path 1923" d="M332.45,423.528V374.812a14.208,14.208,0,0,0-6.429-11.135l-42.19-24.359a14.211,14.211,0,0,0-12.857,0l-42.19,24.359a14.208,14.208,0,0,0-6.429,11.135v48.716a14.207,14.207,0,0,0,6.429,11.134l42.19,24.359a14.211,14.211,0,0,0,12.857,0l42.19-24.359A14.207,14.207,0,0,0,332.45,423.528Z" transform="translate(87.775 2954.612)" fill="#b35a65"/>
    <path id="Path_1924" data-name="Path 1924" d="M326.021,363.676l-42.19-24.359a14.211,14.211,0,0,0-12.857,0l-42.19,24.359a14.208,14.208,0,0,0-6.429,11.135v48.716a14.207,14.207,0,0,0,6.429,11.134l42.19,24.359a14.211,14.211,0,0,0,12.857,0l42.19-24.359a14.207,14.207,0,0,0,6.429-11.134V374.812A14.208,14.208,0,0,0,326.021,363.676Zm4.944,59.85a12.782,12.782,0,0,1-5.686,9.849l-42.191,24.359a12.756,12.756,0,0,1-11.373,0l-42.188-24.359a12.778,12.778,0,0,1-5.687-9.849V374.812a12.778,12.778,0,0,1,5.687-9.849L271.716,340.6a12.745,12.745,0,0,1,11.373,0l42.191,24.358a12.782,12.782,0,0,1,5.686,9.849Z" transform="translate(87.775 2954.612)" opacity="0.5" fill="url(#linear-gradient)" style="mix-blend-mode: overlay;isolation: isolate"/>
    <path id="Path_1925" data-name="Path 1925" d="M358.516,404.557H346.908V370.29a6.774,6.774,0,0,0-2.684-4.647l-59.355-34.269a6.748,6.748,0,0,0-5.366,0l-59.355,34.269a6.778,6.778,0,0,0-2.683,4.647v34.268H205.856V370.29a17.98,17.98,0,0,1,8.487-14.7L273.7,321.319a17.98,17.98,0,0,1,16.974,0l59.355,34.269a17.981,17.981,0,0,1,8.488,14.7Z" transform="translate(82.993 2949.223)" fill="#e4a617"/>
    <path id="Path_1926" data-name="Path 1926" d="M281.1,465.9a12.353,12.353,0,0,1-6.069-1.474l-59.355-34.269a13.237,13.237,0,0,1-6.069-10.512V385.374h1.935v34.268a11.466,11.466,0,0,0,5.1,8.837L276,462.747a11.455,11.455,0,0,0,10.2,0l59.355-34.269a11.468,11.468,0,0,0,5.1-8.837V385.374h1.935v34.268a13.237,13.237,0,0,1-6.07,10.512l-59.355,34.269A12.354,12.354,0,0,1,281.1,465.9Z" transform="translate(84.08 2968.406)" fill="#757575"/>
    <path id="Path_1927" data-name="Path 1927" d="M332.45,423.527V374.81a14.207,14.207,0,0,0-6.429-11.134l-42.19-24.359a14.211,14.211,0,0,0-12.857,0l-42.19,24.359a14.207,14.207,0,0,0-6.429,11.134v48.716a14.208,14.208,0,0,0,6.429,11.135l42.19,24.359a14.211,14.211,0,0,0,12.857,0l42.19-24.359A14.208,14.208,0,0,0,332.45,423.527Z" transform="translate(87.775 2954.612)" fill="#e4a617"/>
    <g id="Group_579" data-name="Group 579" transform="translate(336.096 3321)">
      <path id="Path_1966" data-name="Path 1966" d="M30.032,6.007a1.1,1.1,0,0,0-.98,1.118V14.83a1.1,1.1,0,1,0,2.2.031V7.124A1.1,1.1,0,0,0,30.176,6,1.137,1.137,0,0,0,30.032,6.007ZM9.686,12.061a1.1,1.1,0,0,0-.653,1.892l6.6,6.6a1.1,1.1,0,1,0,1.578-1.535l-.031-.03-6.6-6.6A1.1,1.1,0,0,0,9.686,12.061Zm40.675,0a1.1,1.1,0,0,0-.636.327l-6.6,6.6a1.1,1.1,0,0,0,1.516,1.6l.031-.031,6.6-6.6a1.1,1.1,0,0,0-.911-1.892ZM30.152,18.132A11.56,11.56,0,0,0,18.6,29.691,10.96,10.96,0,0,0,23,38.428v2.821a3.224,3.224,0,0,0,1,2.287,3.731,3.731,0,0,0,.653.533v6.536A3.856,3.856,0,0,0,28.5,54.458h3.3a3.856,3.856,0,0,0,3.849-3.853V44.069a3.731,3.731,0,0,0,.653-.533,3.224,3.224,0,0,0,1-2.287V38.428a10.959,10.959,0,0,0,4.4-8.737A11.56,11.56,0,0,0,30.152,18.132Zm0,2.2A9.32,9.32,0,0,1,39.5,29.691a8.693,8.693,0,0,1-3.935,7.344,1.1,1.1,0,0,0-.464.912v3.3a1.266,1.266,0,0,1-1.1,1.1H26.3a1.266,1.266,0,0,1-1.1-1.1v-3.3a1.1,1.1,0,0,0-.464-.912A8.693,8.693,0,0,1,20.8,29.691,9.321,9.321,0,0,1,30.152,20.334Zm3.763,4.937a1.1,1.1,0,0,0-.807.464l-4.142,5.693-1.993-1.514A1.1,1.1,0,0,0,25.5,31.545a1.118,1.118,0,0,0,.138.106l2.887,2.2a1.1,1.1,0,0,0,1.544-.2l.02-.028,4.812-6.6a1.1,1.1,0,0,0-.98-1.754ZM6.953,30.241a1.1,1.1,0,0,0,.1,2.2h7.7a1.1,1.1,0,0,0,.028-2.2H7.056C7.022,30.24,6.988,30.24,6.953,30.241Zm38.493,0a1.1,1.1,0,0,0,.1,2.2h7.7a1.1,1.1,0,0,0,.028-2.2H45.549C45.515,30.24,45.481,30.24,45.446,30.241ZM26.853,44.551h6.6v1.1h-6.6Zm0,3.3h6.6v1.1h-6.6Zm.086,3.3h6.427a1.476,1.476,0,0,1-1.564,1.1H28.5A1.476,1.476,0,0,1,26.939,51.156Z" transform="translate(0 0)" fill="#fff"/>
    </g>
  </g>
</svg>
