<svg xmlns="http://www.w3.org/2000/svg" width="35.043" height="22.288" viewBox="0 0 35.043 22.288">
  <g id="Group_434" data-name="Group 434" transform="translate(-3.938 -20.75)">
    <path id="Path_1781" data-name="Path 1781" d="M11.28,21a4.5,4.5,0,0,0-2.4,8.319,7.093,7.093,0,0,0-4.689,6.665v1.877a.75.75,0,0,0,.4.657,14.148,14.148,0,0,0,6.692,1.631,14.792,14.792,0,0,0,3.016-.317v.716a.75.75,0,0,0,.412.669,14.171,14.171,0,0,0,5.172,1.549.751.751,0,1,0,.267-1.479.779.779,0,0,0-.125-.012A12.368,12.368,0,0,1,15.8,40.043v-3.18a5.481,5.481,0,0,1,5.655-5.35,5.481,5.481,0,0,1,5.655,5.35v3.18A12.662,12.662,0,0,1,22.9,41.275a.751.751,0,1,0,.016,1.5.739.739,0,0,0,.125-.012,14.43,14.43,0,0,0,5.172-1.549.75.75,0,0,0,.412-.669v-.716a14.584,14.584,0,0,0,3.016.317,14.148,14.148,0,0,0,6.692-1.631.751.751,0,0,0,.4-.657V35.983a7.091,7.091,0,0,0-4.689-6.665,4.528,4.528,0,1,0-4.818-.012,7.081,7.081,0,0,0-3.169,2.311,7.228,7.228,0,0,0-2.168-1.185,4.524,4.524,0,1,0-4.854,0,7.245,7.245,0,0,0-2.168,1.173,7.062,7.062,0,0,0-3.169-2.3A4.5,4.5,0,0,0,11.28,21Zm0,1.5a3,3,0,1,1-3.016,3A3,3,0,0,1,11.28,22.5Zm20.358,0a3,3,0,1,1-3.016,3A3,3,0,0,1,31.638,22.5ZM21.459,23.628a3,3,0,1,1-3.016,3A3,3,0,0,1,21.459,23.628ZM11.28,30.387a5.539,5.539,0,0,1,4.512,2.3,6.61,6.61,0,0,0-1.5,4.177V38.3a13.228,13.228,0,0,1-3.016.352A12.734,12.734,0,0,1,5.7,37.391V35.983a5.561,5.561,0,0,1,5.584-5.6Zm20.358,0a5.561,5.561,0,0,1,5.584,5.6v1.4a12.738,12.738,0,0,1-5.584,1.267,13.228,13.228,0,0,1-3.016-.352V36.863a6.61,6.61,0,0,0-1.5-4.177,5.543,5.543,0,0,1,4.512-2.3Z" fill="#042542" stroke="#000" stroke-width="0.5"/>
  </g>
</svg>
