<svg xmlns="http://www.w3.org/2000/svg" width="32.046" height="32.5" viewBox="0 0 32.046 32.5">
  <g id="Group_436" data-name="Group 436" transform="translate(0.25 0.25)">
    <path id="Path_1783" data-name="Path 1783" d="M44.572,21.088H43.258V5.972a.657.657,0,0,0-.657-.657H38V4h4.6a1.972,1.972,0,0,1,1.972,1.972Z" transform="translate(-13.026 -1.371)" fill="#042542" stroke="#000" stroke-width="0.5"/>
    <path id="Path_1784" data-name="Path 1784" d="M29.575,27.66H1.972A1.972,1.972,0,0,1,0,25.688V5.972A1.972,1.972,0,0,1,1.972,4h4.6V5.314h-4.6a.657.657,0,0,0-.657.657V25.688a.657.657,0,0,0,.657.657h27.6a.657.657,0,0,0,.657-.657V23.716H3.286V22.4h27.6a.657.657,0,0,1,.657.657v2.629A1.972,1.972,0,0,1,29.575,27.66Z" transform="translate(0 -1.371)" fill="#042542" stroke="#000" stroke-width="0.5"/>
    <rect id="Rectangle_349" data-name="Rectangle 349" width="14" height="2" transform="translate(9 30)" fill="#042542" stroke="#000" stroke-width="0.5"/>
    <path id="Path_1785" data-name="Path 1785" d="M15,44.915V43.6a1.237,1.237,0,0,0,1.314-1.155,1.284,1.284,0,0,0,0-.159V39h1.314v3.286a2.555,2.555,0,0,1-2.478,2.629C15.1,44.916,15.05,44.916,15,44.915Z" transform="translate(-5.142 -13.369)" fill="#042542" stroke="#000" stroke-width="0.5"/>
    <path id="Path_1786" data-name="Path 1786" d="M31.628,44.915A2.555,2.555,0,0,1,29,42.437c0-.05,0-.1,0-.151V39h1.314v3.286A1.238,1.238,0,0,0,31.471,43.6a1.264,1.264,0,0,0,.158,0Z" transform="translate(-9.94 -13.369)" fill="#042542" stroke="#000" stroke-width="0.5"/>
    <path id="Path_1787" data-name="Path 1787" d="M18.858,19.716a9.858,9.858,0,1,1,9.858-9.858A9.858,9.858,0,0,1,18.858,19.716Zm0-18.4A8.544,8.544,0,1,0,27.4,9.858,8.544,8.544,0,0,0,18.858,1.314Z" transform="translate(-3.085)" fill="#042542" stroke="#000" stroke-width="0.5"/>
    <path id="Path_1788" data-name="Path 1788" d="M21.6,19.716c-2.622,0-4.6-4.238-4.6-9.858S18.978,0,21.6,0s4.6,4.238,4.6,9.858S24.223,19.716,21.6,19.716Zm0-18.4c-1.554,0-3.286,3.509-3.286,8.544S20.046,18.4,21.6,18.4s3.286-3.509,3.286-8.544S23.155,1.314,21.6,1.314Z" transform="translate(-5.827)" fill="#042542" stroke="#000" stroke-width="0.5"/>
    <rect id="Rectangle_350" data-name="Rectangle 350" width="18" height="2" transform="translate(7 9)" fill="#042542" stroke="#000" stroke-width="0.5"/>
    <rect id="Rectangle_351" data-name="Rectangle 351" width="16" height="1" transform="translate(8 5)" fill="#042542" stroke="#000" stroke-width="0.5"/>
    <rect id="Rectangle_352" data-name="Rectangle 352" width="16" height="1" transform="translate(8 14)" fill="#042542" stroke="#000" stroke-width="0.5"/>
  </g>
</svg>
