<svg xmlns="http://www.w3.org/2000/svg" width="41.452" height="41.452" viewBox="0 0 41.452 41.452">
  <g id="Group_322" data-name="Group 322" transform="translate(-2 -2)">
    <path id="Path_201" data-name="Path 201" d="M15.745,48v2.073H11.6V48H4v6.909a2.772,2.772,0,0,0,2.763,2.763H20.581a2.772,2.772,0,0,0,2.763-2.763V48Z" transform="translate(-0.618 -14.22)"/>
    <rect id="Rectangle_345" data-name="Rectangle 345" width="1" height="3" transform="translate(12.726 31.726)"/>
    <path id="Path_202" data-name="Path 202" d="M21.344,32.763H17.2A2.772,2.772,0,0,0,14.436,30H11.672a2.772,2.772,0,0,0-2.763,2.763H4.763A2.772,2.772,0,0,0,2,35.527v5.527h8.981V38.981h4.145v2.073h8.981V35.527A2.772,2.772,0,0,0,21.344,32.763Zm-11.054,0a1.386,1.386,0,0,1,1.382-1.382h2.763a1.386,1.386,0,0,1,1.382,1.382Z" transform="translate(0 -8.656)"/>
    <path id="Path_203" data-name="Path 203" d="M43.452,24.108V21.344L39.03,19.686a11.156,11.156,0,0,0-.691-2.487l2.971-3.662-1.382-2.418-4.7.76a22.034,22.034,0,0,0-1.8-1.8l.829-4.629L31.845,4.073l-3.592,3.04c-.829-.276-1.658-.484-2.487-.691L24.108,2H21.344L19.686,6.422a11.156,11.156,0,0,0-2.487.691l-3.662-3.04L11.119,5.454l.76,4.7a22.034,22.034,0,0,0-1.8,1.8l-4.629-.76L4.073,13.606,7.112,17.2c-.276.829-.484,1.658-.691,2.487L2,21.344v2.418a4.043,4.043,0,0,1,2.763-1.036H7.734a4.138,4.138,0,0,1,3.938-2.763h.345A11.057,11.057,0,1,1,25.489,33.434l-1.382.345v6.909a4.4,4.4,0,0,1-1.036,2.763h1.036l1.658-4.422a11.156,11.156,0,0,0,2.487-.691l3.662,2.971,2.418-1.382-.76-4.7a22.034,22.034,0,0,0,1.8-1.8l4.7.76,1.382-2.418-3.109-3.523c.276-.829.484-1.658.691-2.487Z"/>
  </g>
</svg>
