<svg xmlns="http://www.w3.org/2000/svg" width="55.99" height="66.24" viewBox="0 0 55.99 66.24">
  <g id="Group_697" data-name="Group 697" transform="translate(-858.293 -6553.76)">
    <path id="Path_60" data-name="Path 60" d="M54.058,221.248,39.592,248.5l13.136-1.214,6.358,11.56,14.466-27.254Z" transform="translate(818.701 6361.149)" fill="#b07c08"/>
    <g id="Group_84" data-name="Group 84" transform="translate(870.243 6582.397)">
      <path id="Path_61" data-name="Path 61" d="M136.092,280.668a1.847,1.847,0,0,0-.868-2.365l-.833-.443a1.78,1.78,0,0,1,1.713-3.121l2.353,1.249a1.485,1.485,0,0,0,2.013-.625l.058-.112a1.4,1.4,0,0,0-.541-1.98l-7.037-3.734a1.853,1.853,0,0,1-.878-2.367,1.785,1.785,0,0,1,2.452-.82l6.528,3.465a1.5,1.5,0,0,0,2.023-.621l.037-.1.01-.021a1.563,1.563,0,0,0-.644-2.127l-3.661-1.943a1.853,1.853,0,0,1-.872-2.377,1.792,1.792,0,0,1,2.452-.82l4.045,2.148a1.51,1.51,0,0,0,2.05-.7.1.1,0,0,0,.01-.021.1.1,0,0,0,.01-.021,1.508,1.508,0,0,0-.574-2.088l-4.364-2.315a1.849,1.849,0,0,1-.868-2.361,1.785,1.785,0,0,1,2.452-.82l10.765,5.714L139.46,288.6l-3.987-7.246A1.7,1.7,0,0,0,136.092,280.668Z" transform="translate(-131.92 -251.004)" fill="#b07c08"/>
      <path id="Path_62" data-name="Path 62" d="M229.294,221.248,243.76,248.5l-13.136-1.214-6.358,11.56L209.8,231.594Z" transform="translate(-199.72 -221.248)" fill="#b07c08"/>
    </g>
    <path id="Path_63" data-name="Path 63" d="M227.651,280.682a1.847,1.847,0,0,1,.868-2.365l.833-.443a1.78,1.78,0,0,0-1.713-3.121L225.286,276a1.485,1.485,0,0,1-2.013-.625l-.058-.112a1.4,1.4,0,0,1,.541-1.98l7.039-3.736a1.853,1.853,0,0,0,.878-2.367,1.785,1.785,0,0,0-2.452-.82l-6.528,3.465a1.5,1.5,0,0,1-2.023-.621l-.037-.1-.01-.021a1.563,1.563,0,0,1,.644-2.127l3.661-1.943a1.853,1.853,0,0,0,.872-2.377,1.792,1.792,0,0,0-2.452-.82l-4.049,2.152a1.51,1.51,0,0,1-2.05-.7,39.257,39.257,0,0,0-.021-.041,1.508,1.508,0,0,1,.574-2.088l4.364-2.315a1.849,1.849,0,0,0,.868-2.361,1.785,1.785,0,0,0-2.452-.82l-10.765,5.714,14.466,27.254,3.987-7.246A1.723,1.723,0,0,1,227.651,280.682Z" transform="translate(670.51 6331.38)" fill="#b07c08"/>
    <circle id="Ellipse_2" data-name="Ellipse 2" cx="24.17" cy="24.17" r="24.17" transform="translate(862.118 6553.76)" fill="#fcb61a"/>
    <path id="Path_64" data-name="Path 64" d="M97.066,33.6H81.749a2.177,2.177,0,0,1-2.168-2.168l.017-.149v-.033a2.264,2.264,0,0,1,2.268-2.284H92.481a2.685,2.685,0,0,0,2.732-2.45A2.6,2.6,0,0,0,92.63,23.8H81.385a2.189,2.189,0,0,1-2.152-2.284v-.066a2.189,2.189,0,0,1,2.152-2.284H93.152a2.679,2.679,0,0,0,2.715-2.433,2.586,2.586,0,0,0-2.582-2.715H84.667a24.167,24.167,0,0,0,0,44.706H95.61a2.679,2.679,0,0,0,2.715-2.433,2.584,2.584,0,0,0-2.582-2.713l-12.446,0a2.575,2.575,0,0,1-2.572-2.715,2.675,2.675,0,0,1,2.717-2.438h4.825a2.579,2.579,0,0,0-.075-5.157H80.877A2.151,2.151,0,0,1,78.726,41.1v-.182a2.037,2.037,0,0,1,2.036-2.168H96.917a2.684,2.684,0,0,0,2.732-2.433A2.587,2.587,0,0,0,97.066,33.6Z" transform="translate(792.5 6541.559)" fill="#fcb61a"/>
    <path id="Path_65" data-name="Path 65" d="M139.837,87.944A17.252,17.252,0,1,1,157.09,70.693,17.273,17.273,0,0,1,139.837,87.944Z" transform="translate(746.451 6507.237)" fill="#b07c08"/>
    <path id="Path_66" data-name="Path 66" d="M248.243,71.027a17.261,17.261,0,0,0-16.263-17.2h-1.607A2.045,2.045,0,0,0,228.3,55.68a1.973,1.973,0,0,0,1.969,2.071l9.493,0a1.963,1.963,0,0,1,1.961,2.071,2.04,2.04,0,0,1-2.073,1.86h-3.68a1.967,1.967,0,0,0,.056,3.933h5.579a1.64,1.64,0,0,1,1.64,1.653v.137a1.552,1.552,0,0,1-1.553,1.653h-12.32a2.048,2.048,0,0,0-2.083,1.856,1.973,1.973,0,0,0,1.969,2.071h11.68a1.659,1.659,0,0,1,1.653,1.653l-.012.114v.025a1.727,1.727,0,0,1-1.729,1.742h-8.1a2.049,2.049,0,0,0-2.083,1.868,1.981,1.981,0,0,0,1.969,2.071h8.576a1.669,1.669,0,0,1,1.64,1.742v.05a1.669,1.669,0,0,1-1.64,1.742h-8.973a2.045,2.045,0,0,0-2.071,1.856,1.972,1.972,0,0,0,1.969,2.071h2.367A17.281,17.281,0,0,0,248.243,71.027Z" transform="translate(655.299 6506.903)" fill="#b07c08" opacity="0.2"/>
    <path id="Path_67" data-name="Path 67" d="M179.406,98.362h-8.392l-2.595-7.981a1.114,1.114,0,0,0-2.119,0l-2.593,7.981h-8.392a1.114,1.114,0,0,0-.654,2.015l6.789,4.933-2.593,7.981a1.114,1.114,0,0,0,1.715,1.245l6.789-4.933,6.789,4.933a1.114,1.114,0,0,0,1.715-1.245l-2.593-7.981,6.789-4.933A1.114,1.114,0,0,0,179.406,98.362Z" transform="translate(718.927 6475.747)" fill="#fff"/>
  </g>
</svg>
