<svg xmlns="http://www.w3.org/2000/svg" width="24.701" height="29.28" viewBox="0 0 24.701 29.28">
  <g id="Group_437" data-name="Group 437" transform="translate(-12.75 -5.75)">
    <path id="Path_1789" data-name="Path 1789" d="M25.091,6,25,6.01a1.435,1.435,0,0,0-.552.133l-9.811,4.936c-.355.182-.355.473,0,.654l.327.164v5.989L13.45,20.932a.772.772,0,0,0,.23.964.551.551,0,0,0,.24.088.477.477,0,0,0,.061,0h3.27a.664.664,0,0,0,.609-.707.8.8,0,0,0-.078-.345L16.27,17.886V12.551l2.289,1.155v5.611a6.163,6.163,0,0,0,2.872,5.171,19.431,19.431,0,0,0-4.671,1.155,8.353,8.353,0,0,0-2.657,1.6A3.173,3.173,0,0,0,13,29.517v4.609a.656.656,0,0,0,.654.654H36.547a.656.656,0,0,0,.654-.654V29.517a3.173,3.173,0,0,0-1.1-2.269,8.36,8.36,0,0,0-2.657-1.6,19.447,19.447,0,0,0-4.671-1.155,6.163,6.163,0,0,0,2.872-5.171V13.706l3.925-1.973c.355-.181.355-.473,0-.654L25.755,6.143A1.478,1.478,0,0,0,25.091,6Zm.01,1.124,8.5,4.282-8.5,4.282-7.185-3.618H25.1a.659.659,0,0,0,0-1.319H17.9ZM19.868,14.37l4.579,2.3a1.637,1.637,0,0,0,1.308,0l4.579-2.3v4.947A5.082,5.082,0,0,1,25.1,24.253a5.082,5.082,0,0,1-5.233-4.936Zm-4.252,5.038.582,1.165H15.034ZM25.1,25.572a26.281,26.281,0,0,1,4.139.317L25.1,32.562l-4.139-6.674a26.281,26.281,0,0,1,4.139-.317Zm-5.509.582a.647.647,0,0,0,.051.092l4.486,7.226H14.308V29.517A1.849,1.849,0,0,1,15,28.2a7.255,7.255,0,0,1,2.248-1.339,15.714,15.714,0,0,1,2.34-.705Zm11.028,0a15.691,15.691,0,0,1,2.33.705A7.255,7.255,0,0,1,35.2,28.2a1.849,1.849,0,0,1,.695,1.318v3.955H26.072l4.487-7.226a.67.67,0,0,0,.061-.092Z" fill="#042542" stroke="#000" stroke-width="0.5"/>
  </g>
</svg>
