<svg xmlns="http://www.w3.org/2000/svg" width="973.267" height="509.802" viewBox="0 0 973.267 509.802">
  <g id="Group_306" data-name="Group 306" transform="translate(-358.733 -6774.334)">
    <g id="Group_285" data-name="Group 285" transform="translate(358.733 6794.333)" opacity="0.7">
      <g id="Group_284" data-name="Group 284" transform="translate(0 0)">
        <path id="Path_151" data-name="Path 151" d="M1059.855,486.547c1.191-.1,2.793-1.238,3.8-.21a8.287,8.287,0,0,1-3.8,4.476c-.829.393-1.92.247-2.791.639-1.659.727-2.535,2.572-3.986,3.836-1.377,1.19-3.186,2.206-4.6,3.2-1.355.941-3.325,2.871-4.989,1.484.131-2.49,2.616-2.463,3.2-4.475-.011-1.492-1.246-1.659-1.2-3.2,2.765-2.586,7.116-4.447,7.776-9.8.3-2.366-1.5-7.451,1.2-7.67,3.182-.259,1.387,3.415,1.6,5.324.081.775.827,1.3,1.19,2.346C1057.922,484.369,1057.865,486.067,1059.855,486.547Z" transform="translate(-90.384 -64.696)" fill="#f9e9c6"/>
        <path id="Path_152" data-name="Path 152" d="M1054.415,490.8c-1.109,3.556-5.962,5.417-9.183,7.671-.984.7-1.79,2.27-2.994,2.765-1.557.663-3.326.446-4.986,1.28-2.636,1.325-4.617,3.911-6.986,5.542-2.318,1.591-5.709,3.831-8.387,4.044-2.953.241-8.408-1.787-4.787-4.683,1.566-1.251,4.894-2.718,6.586-3.617,5.676-3.042,13.66-5.088,18.363-8.741,2.657-2.06,5.061-4.25,7.587-5.961C1050.887,488.237,1053.014,490.545,1054.415,490.8Z" transform="translate(-104.304 -56.166)" fill="#f9e9c6"/>
        <path id="Path_153" data-name="Path 153" d="M1021.629,401.339c.639-.185.62.332,1,.424-.242,3.044-1.95,5.037-5.595,4.691-1.628-.162-4.471-1.464-4.585-2.341C1012.041,401.051,1019.8,402.936,1021.629,401.339Z" transform="translate(-106.048 -109.214)" fill="#f9e9c6"/>
        <path id="Path_154" data-name="Path 154" d="M1032.207,423.132c1.441.435,7.853,5.277,5.786,7.451-1.118,1.2-2.559-.636-4.384-1.06-2.445-.57-4.319.122-5.987-1.281-1.9-1.586-2.359-5.044-4.4-7.029-1.027-1-3.75-2.346-5.584-2.132-3.171.368-3.14,4.245-5.988,5.966-2.728-.311-4.34.531-6.392-.215-2.157-.785-3.241-3.77-5.192-4.041-2.026-.294-6.83,3.487-7.581.212-.609-2.654,3.347-3.524,3.589-5.326.257-1.851-1.554-4.728-2.4-5.542s-2.01-.87-2.994-1.488c-1.017-.652-1.808-1.9-2.994-2.556-4.178-2.33-10.565-1.382-12.172-5.115-.286-.661.156-1.389-.2-2.339-.433-1.167-2.041-1.546-2.6-2.558-1.417-2.6-.424-6.433,1.995-6.82,2.183-.344,6.487,2.529,6.988,4.266.266.909-.182,1.93,0,2.98.226,1.26,1.99,4.337,3.593,4.471,2.067.181,3.287-3.222,5.187-4.471a9.394,9.394,0,0,1,5.195-1.705c1.7.14,2.834,1.565,4.784,2.341,1.4.559,3.136.78,4.794,1.28,1.446.437,2.7,1.345,4.188,1.915,4.754,1.84,10.409,2.916,12.974,6.181.7.893.686,2.211,1.6,3.2.843.909,5.459,1.8,5.586,3.836.1,1.549-1.9,1.639-1.99,3.193C1027.433,419.846,1031.512,419.663,1032.207,423.132Z" transform="translate(-126.407 -116.523)" fill="#f9e9c6"/>
        <path id="Path_155" data-name="Path 155" d="M988.471,490.192a13.585,13.585,0,0,1-4.99,7.458c-1.8,1.337-7.525,4.04-8.181.215-.182-1.066,1.115-6.009,1.593-7.032,1.411-2.985,2.917-1.032,5.192-.641C984.416,490.595,986.61,488.688,988.471,490.192Z" transform="translate(-124.788 -55.986)" fill="#f9e9c6"/>
        <path id="Path_156" data-name="Path 156" d="M984.272,302.692c.811,2.554,1.366,5.072,2,7.454-2.2,2.922-6.553,1.842-9.779,3.405-1.518.737-1.936,3.428-3.4,3.836-1.173.329-2.082-1.087-3.191-1.064-2.867.059-4.268,5.122-7.787,3.836-2.011,1.28.08,6.186-2.393,6.6-1.76.3-2.728-2.131-3.8-3.62-1.291-1.808-3.135-2.8-3.186-4.261-.054-1.517,2.863-4.056,3.785-5.11,1.134-1.3,3.361-3.712,4.788-4.051,2.661-.623,5.363.275,7.391-.634,1.747-.8,1.849-3.733,2.791-4.475.8-.631,1.714-.458,2.4-.851,1.85-1.071,3.851-4.756,2.794-8.521-.668-2.378-4.361-4.982-1.993-7.886,3.534.4,8.2,4.12,8.781,7.886.227,1.469-.534,2.938-.4,4.471C983.146,300.589,983.912,301.535,984.272,302.692Z" transform="translate(-136.158 -178.214)" fill="#f9e9c6"/>
        <path id="Path_157" data-name="Path 157" d="M979.521,285.267c-.448,1.085-1.351.861-2.192,1.488-.817.615-1.786,2.567-2.792,2.771-1.6.323-3.4-1.678-5-1.275-1.87.474-.776,2.007-1.4,3.831-1.638-.371-4.325-2.318-4.39-4.261-.045-1.22,1.441-1.975,1.8-3.405.591-2.436-.942-3.662-1.8-5.966-.062-.344.189-.365.2-.639,1.95-.437,5.781,3.486,10.182,4.259C976.978,282.571,979.356,282.3,979.521,285.267Z" transform="translate(-130.608 -184.01)" fill="#f9e9c6"/>
        <path id="Path_158" data-name="Path 158" d="M970.331,417.433c.2,1.771-2.691,1.565-3,.419C967.393,416.483,969.973,416.052,970.331,417.433Z" transform="translate(-128.797 -99.957)" fill="#f9e9c6"/>
        <path id="Path_159" data-name="Path 159" d="M960.091,271.3c1.977,1.114,6.764,3.641,3.392,5.966C961.442,276.457,959.315,273.7,960.091,271.3Z" transform="translate(-132.534 -187.934)" fill="#f9e9c6"/>
        <path id="Path_160" data-name="Path 160" d="M955.208,412.477c2.282-1.329,4.778-4.245,8.78-2.776-.876,2.652-3.886,2.6-5.786,3.836-1.926,1.252-3.553,3.378-5.987,3.621a1.9,1.9,0,0,0-.8-.856C951.4,413.924,953.625,413.381,955.208,412.477Z" transform="translate(-136.829 -104.371)" fill="#f9e9c6"/>
        <path id="Path_161" data-name="Path 161" d="M953.569,386.657c2.342.006,4.551-.769,6.179.215-.3,5.327-8.044,1.276-13.167,2.13-1.094.178-1.416,1.081-2.6.634a4.445,4.445,0,0,1,3.793-3.829C949.236,385.646,951.425,386.652,953.569,386.657Z" transform="translate(-140.578 -118.606)" fill="#f9e9c6"/>
        <path id="Path_162" data-name="Path 162" d="M957.033,390.679c.226,2.948-3.545,3.275-4.593,5.547,1.659,2.705,2.3,6.486,4.194,8.94-.08,1.625.308,3.749-.6,4.475-4.017.824-6.179-6.884-7.787-9.58-3.07.613-.268,11.1-4.385,9.8-2.022-.641.026-3.636-.4-5.961-.373-2.044-2.247-2.463-2.393-4.056-.116-1.312,1.355-2.705,1.795-4.044.633-1.933.23-5.648,2.393-5.746,1.068-.053,2.5,2.394,3.194,2.55C950.833,393.148,953.666,390.006,957.033,390.679Z" transform="translate(-142.051 -116.027)" fill="#f9e9c6"/>
        <path id="Path_163" data-name="Path 163" d="M948.507,410.841c-.736,1.614-4.838.838-5.186-.642C944.021,408.521,948.164,409.027,948.507,410.841Z" transform="translate(-140.91 -104.445)" fill="#f9e9c6"/>
        <path id="Path_164" data-name="Path 164" d="M945.715,414.333a5.249,5.249,0,0,1-.791.857c-1.518-.519-3.135-.91-3.593-2.558C942.45,410.879,945.665,412.332,945.715,414.333Z" transform="translate(-141.914 -102.828)" fill="#f9e9c6"/>
        <path id="Path_165" data-name="Path 165" d="M944.142,410.756c-1.011,1.535-4.525-.124-5.786,1.49-2.076-.055-4.167-.08-4.592-1.915.6-1.559,2.491-.488,3.991-.639C940.168,409.46,943.5,407.652,944.142,410.756Z" transform="translate(-145.73 -104.577)" fill="#f9e9c6"/>
        <path id="Path_166" data-name="Path 166" d="M923.7,488.211c-.015-1.882-1.119-3.539-1.4-5.534-.1-.721.1-1.652,0-2.562-.131-1.318-.742-2.415-.6-3.195.278-1.41,1.819-1.561,2.2-2.77.626-1.986-.766-2.3-.8-4.685-.026-1.684,1.2-2.5,2-4.687.369-1.011.384-2.9.793-3.62.519-.907,2.726-1.678,3.593-2.124,3.06-1.6,5.514-4.582,8.59-5.117.775-.133,1.834.1,2.394,0,1.81-.337,4.083-1.957,6.586-2.554,2.422-.586,4.563-.366,6.388-1.5a17.355,17.355,0,0,0,5.584-6.388c.912-2.341.645-4.314,2.4-5.11.862-.387,1.7.032,2.6-.212a12.011,12.011,0,0,0,3.594-1.919c1.392-1.329,1.619-3.508,3.193-4.9a27.908,27.908,0,0,1,4.594-3.19,7.523,7.523,0,0,1,3.186-.857c2.818.258,4.128,4.45,7.188,3.62,1.094-.294,2.209-2.774,3.2-4.259,1.438-2.172,2.485-5.1,4.987-5.749,2.019-.528,4.279.828,5.387-1.066.251-1.345-.942-2.147,0-2.985,2.329.156,6.261,3.506,9.779,3.619,1.9.066,5.413-2.2,5.79.857.167,1.353-1.42,2.447-1.793,3.834-.268.978.393,1.506-.2,2.556-1.625.682-3.343,1.042-3.392,2.98-.062,2.431,3.221,3.571,5.186,4.9,1.351.91,2.475,2.3,3.2,2.766.614.387,1.587.57,1.995.849,1.3.9,2.214,2.932,4,2.986,2.026.053,4.051-2.707,5.186-5.332,1.327-3.067,1.4-6.788,1.992-10.01.2-1.076.916-2.126,1.2-3.2.77-2.912,1.816-6.848,4.188-7.882,2.385,2.694,3.2,7.935,2.8,12.363,1.592,1.291,4.4.861,4.784,3.834.135,1.028-.478,2.341-.4,3.4.135,1.795,1.387,3.365,1.6,4.9.4,2.839-.444,5.179.791,7.244,1.558,2.6,4.612,2.517,6.589,5.332-.036,1.747.614,2.453,1,3.824.188.65.01,1.712.2,2.137.639,1.422,2.368,1.564,2.994,2.763.308.591.221,1.707.6,2.77.546,1.565,1.862,2.733,2.793,4.261.9,1.48,2.379,3.089,2.6,4.266.4,2.121-1.043,3.577-1.4,5.321-.429,2.119,0,4.852-.791,7.031-.927,2.559-3.212,5.083-4.995,8.307a28,28,0,0,1-5.59,7.454c-1.261,1.076-2.758,1.7-3.993,2.776a60.958,60.958,0,0,0-5.187,5.749c-1.8,2.028-3.976,3.577-5.393,5.321-2.049,2.534-3.069,6.621-6.582,7.031-2.057.242-3.9.053-5.791.856-2.956,1.252-4.915,3.559-6.382,3.62-1.544.053-2.968-1.931-4.4-2.132-1.6-.22-2.854,1.292-5.187,1.276-.952,0-1.431-.6-2.792-1.066-2.852-.962-5.988-.923-6.386-4.255-.226-1.817,1.083-2.635.993-4.266s-1.578-2.033-2.2-3.405c.394-1.467.459-3.319-1-4.264a4.476,4.476,0,0,1,.8-2.98,25.917,25.917,0,0,0-4,1.71c-1.453.934-2.5,3.086-4.184,2.765-1.578-.591-.367-2.265-.6-3.62-.176-1.032-2.383-5.44-3.4-6.177a27.376,27.376,0,0,0-6.785-2.776c-6.17-1.028-10.1,2.492-14.975,2.993-1.25.124-2.612-.225-3.787,0-4.012.748-8.482,4.147-10.982,6.385-4.128.435-8.312-.9-12.577.43-4.229,1.316-6.652,5.078-13.164,4.039-1.292-1.183-3.585-1.769-3.6-3.831-.015-1.625,2.252-2.672,2.994-3.834a15.618,15.618,0,0,0,2.193-5.966c.041-1.414-.894-3.108-.8-4.9C922.971,491.083,923.708,489.593,923.7,488.211Z" transform="translate(-153.425 -100.444)" fill="#f9e9c6"/>
        <path id="Path_167" data-name="Path 167" d="M925.193,406.816c1.089-.161,1.9-1.019,2.994-1.058,2.324-.1,4.628,1.833,7.379,1.484.6.689.193,1.26.208,2.35,2.333,1.329,6.164,1.087,7.378,3.616-1.748,1.978-4.345.559-6.586.21-2.026-.307-4.184-.156-6.386-.425-2.792-.344-5.32-1.991-7.979-2.339-1.619-.217-3.272.246-4.795,0-1.795-.3-8.488-2.993-8.583-4.9-.1-1.965,3.013-2.519,5.786-2.137C918.2,404.122,920.591,407.5,925.193,406.816Z" transform="translate(-158.313 -107.877)" fill="#f9e9c6"/>
        <path id="Path_168" data-name="Path 168" d="M926.36,411.828c-1.507-.451-2.923-.206-3.582-.641-1.369-.9-1.166-3.447-1.605-4.9-.439-1.469-2.1-2.253-2.988-4.259-1.3-2.9-1.861-9.408,1.593-10.012,1.39-.247,2.822.894,3.791.642,1.926-.507,1.587-3.164,3.194-4.268.892-.613,2.526-.355,3.8-.849,1.307-.512,2.288-1.84,3.192-2.982.836-1.064,1.491-2.85,2.594-3.619,1.241-.873,2.39-.893,3.392-1.707,2.616-2.129,2.7-5.1,4.789-7.671,1.775-2.172,4.576,2.094,4.795,3.837.991,1.355,2.943,1.689,3.791,3.195-1.175,3.749-4.492,4.073-3.791,9.371a15.875,15.875,0,0,0,1.2,3.625c.57,1.248,2.258,2.593,2.193,3.4-.131,1.593-3.135,1.524-3.8,3.195-.606,1.549.044,1.652-.2,4.046-.841,1.737-3.095,2.156-3.8,4.266-.842,2.533.126,5.809-1.793,7.671-1.327-.076-2.779,1.227-4.385,1.06-1.75-.172-3.418-2.733-6.2-2.771-1.058-.01-2.308.723-3.392.641C928.307,413.037,927.616,412.2,926.36,411.828Z" transform="translate(-154.097 -127.585)" fill="#f9e9c6"/>
        <path id="Path_169" data-name="Path 169" d="M915.975,393.463c5.076,0,5.076,8.41,0,8.41S910.894,393.463,915.975,393.463Z" transform="translate(-156.626 -113.96)" fill="#f9e9c6"/>
        <path id="Path_170" data-name="Path 170" d="M922.728,403.6c.625.092,2.833,3.368,2.8,4.266-.069,1.5-2.18,1.419-2.8,3.405-.937,3.062.424,6.53-1.193,8.1-.907.586-2.545.411-3.991.421a60.392,60.392,0,0,1-9.583-9.587c-1.124-1.318-2.494-2.463-3.2-3.836-1.038-2.034-1.407-4.271-2.591-6.175-1.049-1.673-2.97-2.867-4-4.685-.834-1.495-.913-3.46-1.792-4.9-.824-1.337-2.216-1.914-3.2-2.985-.633-.7-1-1.79-1.592-2.554-2.509-3.206-7.334-4.879-7.581-9.587,1.023-1.247,2.078.469,3.988.856,1.238.249,2.7-.108,3.592.21,1.813.65,3.065,3.673,4.99,5.326,1.079.925,2.485,1.564,3.588,2.554,1.185,1.06,2.05,2.575,3,3.195,1.3.849,3.1,1.41,4.793,2.562,2.308,1.564,6.427,3.193,6.986,6.393.135.792-.349,2.135-.2,2.76.278,1.119,1.6,1.6,2.4,2.558.981,1.186,1.184,2.962,2.594,3.2C921.141,405.517,921.206,403.393,922.728,403.6Z" transform="translate(-170.825 -125.116)" fill="#f9e9c6"/>
        <path id="Path_171" data-name="Path 171" d="M847.649,364.968c1.718.6,7.454,8.04,5.787,12.146a4.461,4.461,0,0,1-4.391,2.341c-3.952-.67-3.2-10.054-1.995-13.848A1.047,1.047,0,0,1,847.649,364.968Z" transform="translate(-189.956 -131.214)" fill="#f9e9c6"/>
        <path id="Path_172" data-name="Path 172" d="M760.106,439.811c.178-1.716,1.322-4.529,2.6-5.547,1.84-1.458,4.33-1.307,6.189-2.339a15.753,15.753,0,0,0,4.789-3.836c.963-1.329,1.014-2.845,1.8-3.836.536-.682,1.745-.867,2.389-1.7.581-.753.454-2.151,1.4-2.978,2.771-1.267,3.567,4.152,4,7.873.126,1.162.69,2.405.591,2.982-.287,1.7-2.042,2.05-2.592,3.206-.135,4.667-1.853,8.725-3.4,12.559-1.325,3.315-2.1,6.947-3.189,9.8-.4,1.039-1.235,1.851-1.595,2.766-1.441,3.625-1.969,9.317-4.594,10.866a19.876,19.876,0,0,1-5.59,1.49,5.766,5.766,0,0,1-5.187-4.255c-.338-1.212,0-2.476-.2-3.837-.242-1.71-1.195-3.168-1-5.115.444-4.335,4.4-6.44,4.591-10.01C761.251,445.21,759.83,442.537,760.106,439.811Z" transform="translate(-235.151 -98.262)" fill="#f9e9c6"/>
        <path id="Path_173" data-name="Path 173" d="M736.5,265.332c.233,3.572-5.115,3.126-5.79,6.181-.3,1.382.624,3.229.4,4.471-.408,2.236-2.434,1.586-4.99,2.77-1.306.6-2.571,2.818-3.993,2.98-1.315.151-2.117-.817-2.994-.634-1.31.263-.873,1.978-2.8,2.339-1.533.286-4.214-1.463-4.391.641-.116,1.35,2.41,2.082,3.993,1.914,1.255-.128,2.172-1.048,3.392-1.064,2.363-.021,3.9,1.872,5.387,1.92,3.427.1,6.791-3.378,10.385-2.985,1.622.177,2.585,1.4,3.79,1.28,1.926-.194,3.564-2.566,4.99-3.41-.6-3.588.056-8.321,3.2-8.521,2.157-.135,5.393,3.937,5.786,0a3.252,3.252,0,0,0-2.994-3.195c-1.148.026-2.655,2.426-3.594.43.006-1.954,2.058-1.437,3.2-1.922.846-.36,1.446-1.344,2.394-1.705,4.748-1.779,11.331,1.748,13.174-2.554-4.212-3.836-11.385,1.4-16.168,1.064-2.042-.14-4.733-1.758-5.389-3.834-.206-.657-.034-1.54-.2-2.766-.181-1.36-.842-2.786-.8-3.625.2-3.847,9.178-4.571,9.178-9.37-1.714-1.755-6.74-1.458-8.383.424-.59.678-.56,2.05-1.4,3.412-1.789,2.909-7.572,3.254-9.38,6.814a8.061,8.061,0,0,0-.8,4.261C732.184,262.665,736.368,263.213,736.5,265.332ZM689,473.667c-5.751-.9-11.634,1.577-15.571,3.4-2.273,1.061-4.587,2.675-6.586,2.771-1.9.1-3.761-1.074-5.586-1.275a28.755,28.755,0,0,0-7.787.425c-2.294.435-4.366,2.184-6.388,2.341-3.871.311-7.549-3.723-9.98-5.751-1.486-1.236-3-2.249-4.39-3.405-1.492-1.248-3.427-2-4.591-3.2-1.572-1.622-1.572-4.447-2.395-6.605-.972-2.538-3.931-4.4-6.189-6.815-1.69-1.8-5.565-4.5-5.988-6.814-.212-1.185.474-2.551.4-3.836-.105-1.867-1.42-2.927-1.395-4.261.039-1.872,2.106-3.32,2.6-4.9.253-.808.131-1.948.4-2.981.56-2.163,1.9-3.442,1.6-6.605-.122-1.259-1.134-2.41-1.2-4.044-.041-1.119.691-1.744.6-2.771-.152-1.818-2.363-2.174-2.6-4.26-.232-2.158,1.932-3.938,3.2-6.392.569-1.1.882-2.781,1.4-3.62,1.119-1.813,2.943-2.689,3.8-4.475.624-1.318.826-3.272,1.4-4.261.736-1.268,2.2-1.952,3.594-3.62,1.133-1.36,1.6-3.007,2.394-3.62,1-.774,2.5-.963,3.594-1.49a16.16,16.16,0,0,0,8.181-7.886c-.545-3.426.277-4.873,1.6-7.239,1.22-2.19,2.112-4.282,4.193-5.541,2.5-1.508,4.84-1.647,6.583-4.471.872-1.414,2.183-3.856,2.2-5.324.02-2.11-2.026-4.81-3.791-5.117-1.8-.307-4.576,1.463-5.589-.634-.323-.673.12-2.245,0-2.985-.232-1.4-1.351-2.379-1.4-3.407-.1-2,1.844-4.083,2.394-6.39.746-3.142.026-5.546-.2-9.161,2.792-4.7,8.993-2.367,15.172-1.92.928.071,1.992-.238,2.994-.21,3.665.092,6.549,1.27,7.782-2.13a24.12,24.12,0,0,0,.6-7.244,16.453,16.453,0,0,0-4.194-5.961c-1.98-1.345-4.853-.758-5.987-3.195.922-4.206,5.338-.7,7.984-1.705,1.351-.511,1.2-3.007,2.4-3.41.817-.275,1.859.877,3,.854.966-.021,4.471-1.9,5.387-2.561,1.276-.918,1.668-2.829,2.792-3.62.761-.531,1.765-.467,2.6-.849a15.112,15.112,0,0,0,4.99-3.836c1.647-2.108,2.389-4.723,4.39-5.11,2.676-.522,8.73.565,9.184-2.561.427-2.973-2.455-5.314-1.4-8.521.838-2.534,2.97-2.087,5.989-3.619,1.456,1.1,1.034,4.255,1.194,6.18,1.855.016,5.63-.586,5.988-2.346.448-2.195-2.7-4.426-3.392-5.749-.746-1.437-.906-3.959-2.393-4.261-3.04-.623-5.994,4.471-9.783,4.471a6.683,6.683,0,0,1-5.787-4.046c-.373-1.142-.035-2.217-.2-3.41-.241-1.744-1.22-3.55-.8-5.961,1.527-2.8,5.05-3.248,7.585-4.69.958-.544,1.729-1.705,2.794-2.131,1.789-.7,4.435,0,6.189-1.066,1.109-.671.8-1.834,1.6-3.2.5-.854,1.718-1.355,2.394-2.339.469-.684.525-1.716,1-2.346,1.733-2.3,4.9-3.152,6.185-5.536.569-1.053-.982-1.447-.594-2.985.645-1.485,3.135-.393,4.587-.641,1.986-.328,3.821-2.9,5.987-3.4,2.263-.523,4.688-.206,6.789-1.066,1.255-.517,2.41-1.732,3.594-1.92.418-.064,1.6.242,2.192.215.761-.032,1.583-.533,2.6-.641,1.467-.156,3.286.382,5.192.425,3.155.075,6.155-1.011,8.781.215,1.374.641,1.219,2.3,2.991,2.98.894.344,2.073-.135,3.394,0,1.956.2,4,1.641,6.588,1.92.922.1,1.874-.124,2.792,0,2.852.371,5.988,1.975,8.786,2.98,2.338.845,7.293,1.895,7.384,4.261.111,2.8-4.309,3.62-6.189,3.62-3.14,0-7.3-1.959-10.574-.851.05,4.82,4.924,8.468,9.38,7.882.393-2.265-2.52-1.007-2.2-3.195,1.99-1.6,4.375,1.076,7.188.639,1.1-.316.912-2.012,1.195-3.2,2.374-1.538,5.347-3.8,8.983-2.131a1.826,1.826,0,0,1,.8-.849c.236-2.339-2.4-3.561-1-5.756.7-1.512,4.415-.989,4.99.215.287,1.442-.922,1.286-.8,2.556a3.174,3.174,0,0,0,3.2,1.919c1.959-.112,2.347-1.984,4.193-2.985.745-.4,1.84-.446,2.792-.849,1.13-.478,2.087-1.448,2.994-1.705.665-.188,1.67,0,2.6-.215,1.179-.27,2.423-1.281,3.392-1.275,1.2,0,2.065,1.484,3.592,1.705.832.117,1.78-.506,2.994-.641.979-.114,1.99.124,2.794,0,1.906-.3,3.216-1.366,4.793-1.28,1.115.064,3.024,1.667,3.79.854,1.292-1.366-1.723-2.383-.791-3.625,3.06.247,6.312.172,9.381.641,4.561.694,8.855,3.1,12.968,3.2-.387-2.959-3.564-2.108-4.989-3.405-.435-.4-2.219-3.518-2.193-4.475a26.1,26.1,0,0,1,2.794-5.112c1.759-1.763,7.529-1.752,9.178.636,1.13,1.634.755,4.1,2.393,4.049,1.411-.042,2.162-3.742,3.8-3.834,1.351-.075,2.035,2.373,3.392,2.346,1.653-.039,2.8-3.325,4.99-3.412,1.18-.048,1.572.645,3.391.851,1.25-.856-.417-1.984.2-3.2,2.231-1.732,7.328-.416,10.177-1.492.8-1.01-1.015-1.726-.2-2.77,2.461-1.834,6.594-2,10.784-2.765,2.56-.469,4.974-2.367,6.979-2.561,2.1-.2,4.1,1.313,5.989,1.28a10.564,10.564,0,0,0,3.6-.849c1.122-.467,1.89-1.63,3-1.92,1.751-.458,3.963.22,5.989,0,2.141-.231,4.033-1.119,5.584-.849,1.452.247,2.616,1.9,3.993,2.129,4.2.7,8.543-.673,12.374.425.686.2,1.377.958,2.2,1.281,2.565,1,4.315.687,4.795,4.044,2.016.764,3.2,2.739,5.584,3.41,1.593.446,3.2-.215,4.99-.215a52.528,52.528,0,0,1,7.384.425c1.145.188,2.087,1.087,3.2,1.281.806.14,1.874-.093,2.791,0,1.25.122,2.374.671,3.392.639,2.093-.069,3.68-2.06,5.389-2.346a13.225,13.225,0,0,1,2.994.425c3.364.3,7.239-.469,9.982.215,1.465.366,3.972,2.087,5.589,3.405,1.175.957,1.885,2.479,2.994,3.195,1.049.678,3.71,1.893,4.793,1.705,1.276-.215,1.331-1.732,2.592-2.339,3.961-.942,10.988,1.345,14.175-.215,1.234-.608.991-2,1.995-2.771,5.989-.311,11.957.263,17.565.425,1.972.059,4.008-.538,5.793-.21,1.975.366,3.415,2.481,5.383,3.2,1.309.474,3.618.226,5.59.641,1.322.275,2.409,1.124,3.389,1.275,2.133.323,4.17-.252,6.2-.424,4.576-.393,10.459-.652,14.969,1.28,2.4,1.028,3.407,3.1,5.983,3.405,3.69.435,9.4-.323,13.177,0a22.006,22.006,0,0,0,2.393.424c1.265-.1,2.036-1.243,3.594-1.273,1.975-.048,5.121,3.285,7.99,2.77,1.235-.893-.994-2.135.189-2.985,1.125-1,2.663-.011,4.4,0,.943.01,2.1-.512,3-.425,2.192.2,4.276,2.307,6.985,2.98a23.367,23.367,0,0,0,7.788.43c1.915-.226,3.559-.915,5.387-.641a26.351,26.351,0,0,1,2.592,1.066c.851.23,1.683.01,2.4.209.665.194,1.325.861,2,1.066,3.708,1.133,8.649,1.694,12.575,2.985,2.308.758,4.668,2.286,6.586,2.339.945.034,1.786-.435,3-.424,6.03.043,13.121,2.723,12.567,8.736-7.056,1.65-12.959-5.186-20.358-3.2a3.338,3.338,0,0,0-2.391,2.98c.274,3.712,9.038,3.4,9.773,7.031-1.435,1.146-3,.064-4.188.215-1.8.226-4.832,2.254-5.988,3.405-1.351,1.35-2.535,4.809-3.991,5.115-1.786.371-4.507-1.877-7.188-1.28-.984.22-1.926,1.527-2.792,1.705-2.2.446-5.007-1.281-6.382,1.49.725,1.948.283,4.659,1.793,5.751.973.71,2.193.161,3.392.639,1.4.56,2.178,2.384,3.388,3.41.993.835,2.052.857,2.6,1.915.125,1.572-.585,1.744-.4,2.771.313,1.785,2.929,2.19,2.994,3.405.09,1.538-1.649,1.211-1.99,2.77-.126.991,1.074,1.254,1.194,2.556.08.872-.66,1.781-.6,2.77.087,1.421,1.135,2.367.993,3.62a3.268,3.268,0,0,1-1.8,2.346c-3.821-2.619-7.262-6.229-11.376-9.587-4.209-3.442-10.883-7.67-11.573-14.911-.024-1.108,2.2-1.98,2.592-3.62.161-.673-.248-1.63-.2-2.556.141-2.5,2.078-4.9,2-6.39-.095-1.63-2.943-4.658-4.4-5.115-1.158.65-.014,1.941-.2,2.985a4.066,4.066,0,0,1-2.994,2.981c-3.775.348-4.2-5.191-10.182-3.62-1.548.408-3.723,2.9-3.189,5.965.164.931,2.565,1.931,2.394,3.195-.167,1.227-5.439,1.588-6.589,1.492-3.219-.276-4.877-2.847-7.781-2.771-1.426.037-2.676,1.275-3.8,1.49-6.287,1.227-15.616-3.3-17.758,2.556-.308.828-.135,1.909-.4,2.77a29.967,29.967,0,0,1-1.6,2.985c-.242.657-.2,1.954-.6,2.981-.363.93-4.137,4.566-.8,5.541.8.226,1.169-.366,2.2-.215,1.714.247,4.566,3.184,6.582,3.195,1.205,0,2.874-1.447,3.793-1.49,1.849-.1,3.185,1.178,4.59,1.915,1.342.7,3.394,2.183,4.4,2.129,1.885-.1.982-1.495,2.794-2.129,3.451,1.092,5.07,5,8.38,8.1,1.2,1.119,2.976,2.082,4.593,3.621.9.861,3.678,3.168,3.8,4.261.105,1.016-.776,1.451-1,2.344-.323,1.3.435,2.249-.4,3.195-3.185-1.257-3.9-4.609-6.189-7.454-.849-1.06-1.7-2.318-2.989-3.836-.585-.682-2.7-3.083-4-2.554-2.509,1.016,1.377,5.077,2,5.965,1.326,1.877,3.084,4.405,3.2,6.392.075,1.268-.776,3.576-.8,5.749-.015,1.469.348,2.8.2,4.046a29.269,29.269,0,0,1-1.4,4.051c-.469,1.559-.575,3.426-.993,4.47-.776,1.92-3.388,4.179-5.2,4.261-1.658.075-2.368-1.362-3.991-1.276-2.455.124-2.909,2.54-4.385,4.47.125,2.1.742,2.819.4,4.263-.539,2.259-3.483,2.651-3.392,4.9.083,2.081,2.691,2.485,3.988,3.41a34.453,34.453,0,0,1,6.592,6.39c1.109,1.517,2.713,4.351,2.6,5.96-.152,2.11-5.837,5.041-8.192,4.261-2.232-.737-1.467-3.012-1.99-5.11-.409-1.614-1.593-2.307-2.192-3.621-.32-.689-.173-1.781-.6-2.554-1.2-2.169-3.308-.984-5.794-2.346-1.626-.893-1.154-2.77-1.793-4.475-.858-2.293-4.476-3.373-7.381-2.766-2.136.442-2.8,2.357-4.793,2.766-2.928-1.851.6-6.419-2.992-6.815-2.753-.308-4.578,4.216-6.191,5.539-1.089.888-3.065,1.071-3.191,2.341-.236,2.35,2.324,1.872,4.384,2.771,1.871.816,2.088,3.076,3.8,3.193,1.428.1,2.375-1.57,3.793-1.705a9.477,9.477,0,0,1,5.986,1.92c-1,2.582-6.371,4.476-6.386,7.882-.009,1.973,2.144,2.314,3.8,3.62,1.392,1.1,3.227,4.216,5.187,6.39.847.936,2.219,1.554,2.6,2.13.922,1.41.776,3.124,1.79,4.051.172,1.167-.5,1.453-.4,2.554.493,1.533,2.7,1.243,3.2,2.771-.409,3.673,1.025,7.132-1.795,8.521-1.3,6.589-2.767,11.743-6.985,15.336-3.8,3.222-8.807,4.174-13.377,5.751-1.187.409-2.133,1.742-3.192,2.131-2.655.962-7.385.376-7.581,3.834-.11,1.707,2.026,2.734,2.193,4.471.251,2.668-1.986,5.351-3.6,5.541-1.158.135-3.657-.726-3.794-2.986-.156-2.538,2.953-3.577,3.2-5.11.424-2.71-2.192-5.351-5.187-5.11-2.636.21-8.634,5.859-8.78,8.946-.116,2.309,4.285,7.111,5.786,8.521,5.605,5.273,11.558,8.435,10.574,21.3-1.4,3.259-4.978,3.954-7.781,5.751-2.133,1.366-3.2,5.6-6.789,5.966-1.443-.528-.6-2.932-1-4.046-.545-1.527-3.4-2.275-5.187-3.836-1.461-1.28-2.074-3.3-3.2-4.476-1.4-1.467-3.484-1.774-5.192-2.77-1.074-.625-1.911-2.818-2.994-2.765-1.76.075-1.149,1.883-1.593,4.9-.444,2.964-2.47,5.239-1.8,8.736.283,1.431,1.956,2.588,2.792,4.044,1.386,2.416,1.578,5.231,3,6.607.936.909,2.531,1.108,3.593,1.915,2.117,1.613,5.843,5.11,6.589,7.032.866,2.241.029,4.884.6,7.244.665,2.726,4.008,4.68,2,7.456-1.911-.377-3.577-1.711-5.2-2.771a16.593,16.593,0,0,1-5.788-6.39,19.768,19.768,0,0,1-1.6-2.554c-.7-1.911-.543-4.073-1.193-6.392a19.989,19.989,0,0,0-4.4-6.82c-1.4-1.41-3.884-2.232-3.99-4.259-.147-2.858.906-6.22.8-9.588-.026-.726-.488-1.458-.6-2.339-.21-1.636.152-3.636-.2-5.117a24.859,24.859,0,0,0-1.8-3.829,41.409,41.409,0,0,1-1.592-4.051c-.811-2.463-1.719-7.214-3.594-7.456-2-.257-3.978,4-6.588,4.051a3.665,3.665,0,0,1-3.392-2.559c-.251-1.309.629-2.627.6-4.046-.075-2.856-1.975-3.959-3.4-5.966-.575-.811-.727-1.952-1.2-2.554-.907-1.158-2.642-1.8-3.791-2.98a16.815,16.815,0,0,1-2.8-3.836c-.77-1.668-1.018-3.831-2.193-4.051-1.124-.21-2.424,1.511-3.593,1.92a31.174,31.174,0,0,1-5.39,1.064c-4.006.3-7.257-.844-6.783,4.261-.624,2.291-2.893,2.318-4.394,3.405-1.911,1.387-3.3,4.17-5.389,6.39-1.014,1.087-2.479,1.764-3.392,2.771-.761.838-1,2.184-1.8,2.985-2.129,2.147-5.323,2.33-6.779,5.326-.086,3.54,1.566,6.218,1.193,9.58-.171,1.533-1.244,2.895-1.4,4.476-.126,1.355.522,2.813.206,4.261-.178.774-.984,1.182-1.6,2.129-.554.849-.776,1.98-1.188,2.556-.675.92-1.78,1.559-2.406,2.346-1.013,1.281-1.225,2.195-2.194,2.344-4.373.673-5.452-8.207-7.384-11.931-.892-1.71-2.706-3.254-3.594-5.326-1.023-2.387-1.336-5.385-2.8-8.1-1.241-2.314-2.953-4.632-3.791-7.031-.71-2.028-1.325-4.568-1.995-6.817a38.652,38.652,0,0,1-1.6-7.239c-.167-2.766.5-4.47-1.6-5.541-1.924.483-2.782,2.556-4.99,2.556-2.129,0-7.847-3.938-6.18-7.458-1.395-2.108-4.909-3.264-7.59-5.749-1.533-1.426-2.919-4.821-5.584-5.11a13.4,13.4,0,0,0-2.4.426c-1.689.156-4.683-.162-6.589,0-2.393.2-5.351.779-8.381.424-1.951-.225-4.376-.629-6.388-.849-2.554-.281-5.951-.926-7.379-2.346-.886-.872-1.244-3.662-2.8-4.044-1.849-.458-2.867,1.069-4.586,1.488-3.66.894-6.714-.8-9.186-2.554-1.751-1.243-3.35-1.888-4.59-2.77-3.034-2.169-3.579-8.687-8.185-8.737-1.6-.016-4.154,1.055-4.391,2.986-.156,1.355,1.518,3.873,2.2,4.9,2.238,3.368,6.35,4.632,7.585,9.156.827.344,2.511-.775,3.392.215.773,1.941-.011,5.545,1.795,6.39,8.3,1.463,10.666-3.389,14.376-6.815,2.151,1.5,1.441,2.813,2.193,4.47a6.844,6.844,0,0,0,3.392,3.627c1,.408,2.288.026,3.794.634.943.382,4.879,4.357,5,5.756.1,1.252-2.586,5.518-3.4,6.6-.791,1.055-2.016,1.6-2.393,2.554-.283.737-.193,2.3-.4,2.771-.367.849-2.16,1.959-3.2,2.98a40.325,40.325,0,0,1-3.392,2.77c-1.259,1.034-2.041,2.453-3.392,2.986-2.655,1.044-5.181.6-7.382,2.131-1.443,1-1.449,3.259-3.192,4.47-1.823,1.265-4.945,1.275-7.591,2.561-1.7.824-2.717,2.421-4.182,2.98-.6.226-1.351.032-2,.215-1.327.36-2.553,1.366-3.8,1.7-.984.268-2.026.135-2.994.43-3.075.947-5.891,4.282-8.983,2.341-1.456-3.588-1.693-8.108-3.392-11.292-.867-1.625-2.571-2.126-3.189-3.831-.087-1.371,1.461-1,1.592-2.13-.508-2.3-2.545-3.378-3.791-5.33-.609-.952-.891-2.309-1.6-3.405-2.38-3.694-7.072-5.616-7.985-10.226-.247-1.254.041-2.238-.2-3.2a12.353,12.353,0,0,0-2.4-4.47c-.763-.947-2.318-1.593-3.191-2.986-.581-.92-.707-2.216-1.2-3.195a34.882,34.882,0,0,0-7.984-10.226c-1.628.252-3.377.371-4.188,1.495a33.755,33.755,0,0,0,3.392,7.456c1.22,2.124,2.953,4.415,3.79,6.815.314.886.257,2.049.6,2.98,1.253,3.378,5.2,4.417,5.986,8.312.531,2.609-.116,4.415.6,7.024.686,2.506,4.154,3.987,5.59,6.39,1.169,1.964,1.18,4.74,2,6.607,1.195,2.733,4.534,3.916,6.985,5.751,2.2,1.65,3.772,4.2,5.584,5.965,1.07,1.034,2.538,1.222,2.8,2.346.338,1.442-.569,1.927-.8,3.19,1.533,1.705,3.025,4.852,5.59,5.115,1.055.108,2.385-1.027,3.993-1.28.811-.124,1.718.135,2.393,0,1.064-.205,1.99-1.217,3.2-1.49,2.039-.469,4.4-.279,6.982-.641,2.44-.339,4.119-2.538,5.989-1.915,2.052,2.405.579,5.133,0,7.456-.2.817-.2,1.662-.393,2.346-1.079,3.792-3.9,6.6-5.2,10.01-.4,1.044-.328,2.325-.791,3.405-1.486,3.415-4.587,6.783-6.992,9.587a40.6,40.6,0,0,1-3.991,4.259c-1.431,1.259-3.18,1.943-4.795,3.2A44.8,44.8,0,0,0,827.72,502c-.873,1.28-1.289,2.753-2.2,3.836-1.3,1.549-3.31,2.314-4.388,3.836-.853,1.2-1.417,3.373-2.4,5.536-1.1,2.436-3.391,4.083-2.992,7.455.15,1.291,1.233,2.094,1.6,3.412.62,2.269.144,4.179-.2,6.6,1.128,2.922,1.941,6.172,3.993,8.1.247,4.309-.334,8.493,0,12.141.211,2.323,1.058,4.036.2,6.176a19.591,19.591,0,0,1-5.387,6.388c-1.885,1.3-4.769,1.636-6.791,3.2-1.405,1.085-2.57,2.991-3.993,4.264-2.351,2.094-5.578,4.051-5.786,6.175-.12,1.222.9,3.073,1.195,4.256.781,3.147,1.539,7.671.2,11.075-1.447,3.686-8.765,2.922-9.581,6.815-.248,1.185.489,2.13.4,3.412a30.2,30.2,0,0,1-2,6.175c-.882,1.765-2.887,2.554-4.188,4.051-1.634,1.888-2.46,4.621-4.194,6.6a61.324,61.324,0,0,1-8.583,7.882,24.109,24.109,0,0,1-11.572,4.475c-2.425.185-5.026-.609-7.587-.21-.937.14-1.956,1.061-3.2,1.276-.721.124-1.458-.135-2.193,0-1.255.225-2.43,1.291-3.594,1.28-2.585-.032-5.906-3.323-5.988-6.6-.03-1.264,1.014-2.464,1-3.627-.021-1.36-1.584-3.067-2.8-5.539-1.164-2.378-1.623-5.072-2.792-7.021-1.24-2.074-2.878-3.06-3.791-4.691-1.84-3.275-1.975-7.153-2.6-11.08-.2-1.281-1.023-2.67-1.2-4.263-.217-1.957.223-4.129-.2-5.749-.323-1.247-1.619-2.516-2.4-4.049-1.407-2.762-2.394-6.371-3.59-8.516-1.124-2.012-3.391-4.11-3.594-6.39a33.845,33.845,0,0,1,.4-5.966c.217-1.5,1.255-2.68,1.6-4.256.227-1.048-.045-2.253.2-3.409,1.018-4.876,6.049-6.648,5.393-12.571-.283-2.513-1.947-3.752-2.2-6.607-.116-1.336.626-2.506.6-3.836-.035-1.8-1.462-4.47-2.2-6.176-2.022-4.7-3.26-9-6.185-12.565-1.592-1.948-3.68-3.32-4.99-5.117-1.074-1.461-2.379-4.2-2.4-5.324-.02-1.215.877-1.975,1.2-3.2.418-1.57.448-4.545,1-7.031.253-1.14,1.407-3.9,1.2-5.749-.2-1.781-2.688-5.2-4.795-5.749-2.788-.738-5.655.951-9.178.639C693.151,479.713,693.378,474.349,689,473.667Zm110.38,76.262c.924-1.565,2.084-5.966,0-7.032h-.4C798.088,544.668,797.14,548.94,799.377,549.929Zm-2.8-44.525c.675-1.474,2.258-3.033,2-4.894-.575-4.105-7.769-2.082-8.578.849-.551,1.973.326,3.539-.4,5.539.785,1.577,2.758,1.888,5.192,1.7C796.132,507.97,795.965,506.76,796.58,505.4Zm-12.172,21.948c.791-1.565-1.261-2.586-1.6-4.264-.394-1.965.448-4.272-1.2-5.327h-.594C779.568,521.251,781.615,527.013,784.408,527.352ZM920.536,315.818c-.751-1.609-2.908.472-1.992,1.92C919.9,317.83,920.381,317,920.536,315.818Zm-46.5,8.736c3.236-.668.036-6.186-2.4-5.541C868.453,319.862,871.825,325,874.032,324.554ZM859.26,352.03c1-7.385-4.4-7.939-5.39-13.205.46.064.221-.615.6-.641,1.309-.673,3.292,1.076,3.985-.634.015-2.524-2.983-4.406-5.988-3.2-.867-.636-.982-2.073-1.195-3.412-2.263-1.435-7.863-4.577-7.787-7.456.065-2.367,2.927-3.694,6.189-3.619,1.376-1.114.49-4.536-.8-5.327-5.162-1.2-7.913-.392-11.181,2.131-1.568,1.211-3.316,2.045-4.194,2.771a5.594,5.594,0,0,0-1.793,3.405c.126,1.318,1.9,2.092,2.6,3.836.356.9.281,2.021.6,2.77.873,2.055,3.105,3.384,4.788,5.11,1.19,1.222,4.525,3.868,4.591,5.326.062,1.215-1.023,1.485-1.392,2.771a16.956,16.956,0,0,0-.6,5.324c.438,2.341,2.708,2.421,4.783,3.412s4.05,2.712,6.189,2.765A8.087,8.087,0,0,0,859.26,352.03Zm-46.909-15.336c5.41-1.044,2.94-5.923.2-7.666-2.076-1.323-4.56-2.474-6.985-4.051-1.407-.914-6.75-2.639-6.785-4.47-.041-2,3.976-2.657,2.393-6.18-2.732-.71-9.228.408-8.78,3.62.257,1.854,2.32.827,2.792,2.77-1.954.742-4.334,2.689-6.386,2.346-2.445-.409-3.075-3.616-4.39-5.541-1.9.064-3.15-1.964-5.389-1.705-2.348.273-3.594,3.909-4.793,5.756-.636.968-1.649,1.467-2,2.339-.2.528.021,1.366-.2,2.131-.685,2.367-2.606,3.234-2.4,5.326.187,1.845,2.067,2.673,2.2,4.259-.132,1.636-2.592.785-2.395,2.771,3.571,3.147,3.77-1.485,5.59-2.131,1.461-.522,4.33.43,6.183,0,1.5-.35,2.676-1.872,4.391-2.554a11.6,11.6,0,0,1,3.8-.856c6.35-.279,10.45,4.131,15.968,4.259A40.427,40.427,0,0,0,812.351,336.694Zm-12.775,25.138c.11-2.286-.817-4.009-1-7.241-3.686-2.373-6.437,2.2-10.177,1.7-2.3-.307-3.946-3.164-6.386-2.765-1.346.215-2.011,2.07-3.4,2.339-2.854.559-4.154-2.437-7.184-1.275-4.273-3.474-6.183-9.134-7.188-15.551-2.327-3.261-5.879-.608-7.584,1.49-1.049-.011-2.359-.618-2.591.639-.787,3.938,5.217,4.357,5.186,7.031-.02,1.739-2.342,1.577-3.391,2.766-1.115,1.263-.373,2.387-1.795,3.195-3.937.506-5.243-1.792-5.192-5.536-1.7-2.754-3.847-4.76-5.389-7.031a8.894,8.894,0,0,1-1.6-3.41c-.141-1,.444-2.259.2-3.405-.433-2.033-3.982-3.566-6.189-4.685-2.359-1.2-5.314-2.334-6.986-3.836-1.185-1.066-1.744-2.916-2.792-3.62-.892-.6-2-.474-2.8-1.064-1.094-.817-.912-2.18-2.393-2.561-.751-.3-1.911.8-2.4,1.495-.973,4.648,2.571,4.966,4.188,7.026,1.115,1.414,1.668,3.545,2.8,4.476,1.205.994,2.843.812,4.39,1.488,1.07.469,1.765,1.89,2.792,2.556,1.906,1.238,4.966,1.453,5.193,3.836-1.186.861-3.871-1.254-4.79.856-.236,1.382,1.029,2.092,1,3.4-.051,2.1-2.234,4.4-4.194,4.051-.2-1.248,1.044-2.269,1-3.624-.086-2.712-5.192-6.849-7.782-8.092-1.216-.586-2.693-.618-3.8-1.28a29.1,29.1,0,0,1-6.588-5.751c-1.428-2.018-2.646-5.751-5.787-5.541-1.28.087-2.339,1.339-3.393,1.922a28.126,28.126,0,0,0-2.994,1.7c-1.164.824-2.112,1.657-3.2,1.705-2.505.114-4.632-1.984-6.785-1.49-.725.167-1.33.861-2.2,1.705a31.961,31.961,0,0,1,.2,3.405c-.651,1.2-2.582,1.124-3.993,1.92-2.067,1.162-3.905,3.551-5.59,5.325-1.083,1.14-2.061,2.081-2.2,2.98-.107.7.558,2.039.4,2.986-.177,1.028-1.987,3.156-3.2,4.044-.706.517-1.643.588-2.394,1.066-1.574.994-2.279,2.291-3.594,2.554-3.489.694-9.83-.748-9.779,3.2.03,2.635,3.362,2.646,5.389,2.554,2.822-.119,5.222.641,6.783.215,1.079-.291,2.258-1.582,3.393-2.13.716-.344,1.456-.35,2-.639,1.195-.641,1.87-1.679,2.8-2.131A23.594,23.594,0,0,1,685.8,353.1c2.691-.167,5.5.3,8.983,0,1.24-.1,2.464-.952,3.8-1.066,2.172-.183,5.029.915,6.783.854,1.216-.042,2.571-1.3,3.991-1.28a4.076,4.076,0,0,1,3.594,2.346c.167.625-.337,1.62-.2,2.556.232,1.549,1.476,2.188,1.4,3.2-.107,1.334-3.221,3.115-2.8,4.685.278,1.011,2.511,2.066,3.594,2.771a12.571,12.571,0,0,0,4.391,1.915c1.128.133,2.127-.336,3.2-.21a14.992,14.992,0,0,1,5.59,2.129c1.874,1.411,1.613,3.669,3.79,4.471.927.344,2.6.149,3.791.43,2.908.671,5.065,3.243,7.188,2.98,3.341-.414,1.819-3.776,2.2-6.175.851-5.44,10.806-5.192,12.771-1.5,1.458.414,2.734.064,4.391.641.957.334,1.673,1.451,2.6,1.705.7.188,1.708-.108,2.6,0,3.827.462,7.293,3.5,10.581,2.98,2.085-.328,3.6-2.421,5.584-2.554,3.82-.252,6.264,3.033,10.383,1.49,3.03-1.135,2.354-4.486,3.392-7.882C798.1,365.22,799.493,363.611,799.576,361.832Zm215.173-72.642c.791-2.712-.438-5.449-2-7.241-2.3.425-.639,2.98-.8,4.476-.227,2.113-2.33,3.582-2.2,5.749-.766.957-2.076,1.334-2.192,2.98,1.27.938,1.823-.735,2.792-1.705C1011.885,291.923,1014.22,291.019,1014.748,289.19Zm-52.3-73.917c-2.2,0-3.024.925-4.388,1.705-.752.424-2.281.661-1.795,1.915C958.184,218.645,961.995,217.72,962.452,215.273Zm-84.23,26.2c4.692,1.167,6.9-4.487,3.791-7.671-.727-.742-3.176-1.032-4.185-2.765-1.223-2.082-1.053-4.863-4-4.259-.032.246.035.6-.2.634-.275,4.658,6.079,5.831,5.989,9.585C879.573,238.969,877.621,239.178,878.222,241.476Z" transform="translate(-307.754 -226.918)" fill="#f9e9c6"/>
        <path id="Path_174" data-name="Path 174" d="M745.51,223.992c-.579-2.3,3.514-1.931,2.8.215C747.667,224.846,745.919,224.793,745.51,223.992Z" transform="translate(-240.716 -217.529)" fill="#f9e9c6"/>
        <path id="Path_175" data-name="Path 175" d="M729.175,303.4c.092-1.76,3.851-2.405,4.585-.851C733.514,304.256,729.947,305.433,729.175,303.4Z" transform="translate(-248.927 -169.545)" fill="#f9e9c6"/>
        <path id="Path_176" data-name="Path 176" d="M683.666,295.952c2.082-1.8,6.713-.581,9.581-.641-.54,1.631-.62,3.744-1.8,4.687C688.176,299.366,685.127,298.506,683.666,295.952Z" transform="translate(-271.882 -173.603)" fill="#f9e9c6"/>
        <path id="Path_177" data-name="Path 177" d="M674.047,289.116c2.743-3.055,5.621-1.44,4.593,4.471-.656,1.763-3.508,4.12-4.795,1.495A23.781,23.781,0,0,0,674.047,289.116Z" transform="translate(-276.836 -178.06)" fill="#f9e9c6"/>
        <path id="Path_178" data-name="Path 178" d="M677.523,284.533a2.887,2.887,0,0,1-1.4,3.2C673.5,287.234,675.5,282.194,677.523,284.533Z" transform="translate(-276.32 -180.292)" fill="#f9e9c6"/>
        <path id="Path_179" data-name="Path 179" d="M653.651,264.606a3.662,3.662,0,0,0-1.8-3.41c-.654-.393-1.658-.21-2.393-.641-1.945-1.142-2.652-3.519-3.79-4.046.145-2.334-.6-4.023,0-5.541a12.056,12.056,0,0,1,4.39-4.044c1.744-.657,3.568-.071,4.591-1.49a1.235,1.235,0,0,1,1,.209c-.009,1.345-1.068,1.565-1.2,2.771.247,1.936,3.442.726,3.791,2.554-.3,1.991-1.981,2.383-2,3.836-.006,1.264,2.419,3.664,3.594,5.325.876,1.233,2.409,2.147,3.2,3.41.685,1.1.836,2.416,1.4,2.98,1.049,1.061,3.417,1.238,3.594,2.771.232,2.034-2.37,2.835-2,5.11-2.741,2.3-7.313,1.108-11.78,1.705-2.02.275-4.248,2.421-6.386.641-.495-1.43,1.774-1.625,2-2.98-.156-1.259-1.649-1.082-2-2.13.581-1.657,2.389-2,2.2-4.476C651.171,265.865,653.313,266.354,653.651,264.606Z" transform="translate(-291.169 -203.608)" fill="#f9e9c6"/>
        <path id="Path_180" data-name="Path 180" d="M643.555,254.482c2.666-1.737,7.324-.408,7.581,1.707.2,1.6-1.416,1.829-2,3.62-.519,1.628.1,3.566-.594,4.69-.611.973-2.269.914-3.4,1.275-2.509.8-7.358,3.948-9.38.425.293-1.888,2.007-2.265,2.6-3.831.035-1.231-1.195-1.882-1-3.2.242-1.609,1.377-1.055,3-1.705C641.533,256.99,642.037,255.473,643.555,254.482Z" transform="translate(-296.043 -198.601)" fill="#f9e9c6"/>
        <path id="Path_181" data-name="Path 181" d="M552.274,225.787c.42,1.893-5.252,4.367-5.792,1.92C546.055,225.748,550.828,223.3,552.274,225.787Z" transform="translate(-341.093 -216.129)" fill="#f9e9c6"/>
        <path id="Path_182" data-name="Path 182" d="M546.948,524.546h-2.994A4.418,4.418,0,0,1,546.948,524.546Z" transform="translate(-342.354 -34.744)" fill="#f9e9c6"/>
        <path id="Path_183" data-name="Path 183" d="M539.973,216.055a.924.924,0,0,1,1.2,0c-.2.5-.352,1.045-1.2.851Z" transform="translate(-344.362 -221.519)" fill="#f9e9c6"/>
        <path id="Path_184" data-name="Path 184" d="M529.646,237.517c.041,1.174-3.966,3.115-4.394.851a1.714,1.714,0,0,1,.8-1.7C527.117,235.968,529.607,236.366,529.646,237.517Z" transform="translate(-351.798 -209.113)" fill="#f9e9c6"/>
        <path id="Path_185" data-name="Path 185" d="M473.43,360.616c-.105.316-.3.538-.4.854C470.911,361.39,472.825,358.5,473.43,360.616Z" transform="translate(-378.619 -134.318)" fill="#f9e9c6"/>
        <path id="Path_186" data-name="Path 186" d="M419.11,267.658c1.4-.87,2.743,1.313,1.8,2.346C419.366,270.321,418.974,268.438,419.11,267.658Z" transform="translate(-405.339 -190.259)" fill="#f9e9c6"/>
        <path id="Path_188" data-name="Path 188" d="M416.859,249.276c-.032.382.241.451.2.854a.8.8,0,0,1-1.4-.214C415.542,249.152,416.248,249.271,416.859,249.276Z" transform="translate(-407.074 -201.274)" fill="#f9e9c6"/>
        <path id="Path_189" data-name="Path 189" d="M413.744,257.465c-.424,1.394-1.578,2.007-2.8,2.554a5.151,5.151,0,0,1-1-1.064C410.034,256.932,412.731,255.443,413.744,257.465Z" transform="translate(-409.948 -196.892)" fill="#f9e9c6"/>
      </g>
    </g>
    <g id="Group_288" data-name="Group 288" transform="translate(1180.014 6911.566)">
      <g id="Group_287" data-name="Group 287" transform="translate(0 0)">
        <g id="Group_286" data-name="Group 286">
          <path id="Path_190" data-name="Path 190" d="M554.475,235.952a26.314,26.314,0,1,0-41.735-.021l20.876,30.5Z" transform="translate(-507.302 -193.658)" fill="#fcb61a"/>
          <ellipse id="Ellipse_92" data-name="Ellipse 92" cx="22.085" cy="22.079" rx="22.085" ry="22.079" transform="translate(4.229 4.227)" fill="#fff"/>
        </g>
      </g>
      <text id="_2_" data-name="2%" transform="translate(15.986 22.193)" font-size="15" font-family="SegoeUI-Semibold, Segoe UI" font-weight="600"><tspan x="0" y="0">2%</tspan></text>
      <text id="Japan" transform="translate(11.986 33.193)" font-size="9" font-family="SegoeUI-Semibold, Segoe UI" font-weight="600"><tspan x="0" y="0">Japan</tspan></text>
    </g>
    <g id="Group_304" data-name="Group 304" transform="translate(701.645 7014.383)">
      <g id="Group_287-2" data-name="Group 287" transform="translate(0 0)">
        <g id="Group_286-2" data-name="Group 286">
          <path id="Path_190-2" data-name="Path 190" d="M554.475,235.952a26.314,26.314,0,1,0-41.735-.021l20.876,30.5Z" transform="translate(-507.302 -193.658)" fill="#fcb61a"/>
          <ellipse id="Ellipse_92-2" data-name="Ellipse 92" cx="22.085" cy="22.079" rx="22.085" ry="22.079" transform="translate(4.229 4.227)" fill="#fff"/>
        </g>
      </g>
      <text id="_2_2" data-name="2%" transform="translate(15.355 22.376)" font-size="15" font-family="SegoeUI-Semibold, Segoe UI" font-weight="600"><tspan x="0" y="0">2%</tspan></text>
      <text id="Ghana" transform="translate(12.355 33.376)" font-size="9" font-family="SegoeUI-Semibold, Segoe UI" font-weight="600"><tspan x="0" y="0">Ghana</tspan></text>
    </g>
    <g id="Group_305" data-name="Group 305" transform="translate(738.443 7056.592)">
      <g id="Group_287-3" data-name="Group 287" transform="translate(0 0)">
        <g id="Group_286-3" data-name="Group 286">
          <path id="Path_190-3" data-name="Path 190" d="M554.475,235.952a26.314,26.314,0,1,0-41.735-.021l20.876,30.5Z" transform="translate(-507.302 -193.658)" fill="#fcb61a"/>
          <ellipse id="Ellipse_92-3" data-name="Ellipse 92" cx="22.085" cy="22.079" rx="22.085" ry="22.079" transform="translate(4.229 4.227)" fill="#fff"/>
        </g>
      </g>
      <text id="_2_3" data-name="2%" transform="translate(15.557 22.167)" font-size="15" font-family="SegoeUI-Semibold, Segoe UI" font-weight="600"><tspan x="0" y="0">2%</tspan></text>
      <text id="Nigeria" transform="translate(12.557 33.167)" font-size="9" font-family="SegoeUI-Semibold, Segoe UI" font-weight="600"><tspan x="0" y="0">Nigeria</tspan></text>
    </g>
    <g id="Group_295" data-name="Group 295" transform="translate(1174.603 7153.997)">
      <g id="Group_287-4" data-name="Group 287" transform="translate(0 0)">
        <g id="Group_286-4" data-name="Group 286">
          <path id="Path_190-4" data-name="Path 190" d="M554.475,235.952a26.314,26.314,0,1,0-41.735-.021l20.876,30.5Z" transform="translate(-507.302 -193.658)" fill="#fcb61a"/>
          <ellipse id="Ellipse_92-4" data-name="Ellipse 92" cx="22.085" cy="22.079" rx="22.085" ry="22.079" transform="translate(4.229 4.227)" fill="#fff"/>
        </g>
      </g>
      <text id="_2_4" data-name="2%" transform="translate(15.397 21.761)" font-size="15" font-family="SegoeUI-Semibold, Segoe UI" font-weight="600"><tspan x="0" y="0">2%</tspan></text>
      <text id="Australia" transform="translate(8.397 34.761)" font-size="9" font-family="SegoeUI-Semibold, Segoe UI" font-weight="600"><tspan x="0" y="0">Australia</tspan></text>
    </g>
    <g id="Group_291" data-name="Group 291" transform="translate(1154.039 7002.478)">
      <g id="Group_287-5" data-name="Group 287" transform="translate(0 0)">
        <g id="Group_286-5" data-name="Group 286">
          <path id="Path_190-5" data-name="Path 190" d="M554.475,235.952a26.314,26.314,0,1,0-41.735-.021l20.876,30.5Z" transform="translate(-507.302 -193.658)" fill="#fcb61a"/>
          <ellipse id="Ellipse_92-5" data-name="Ellipse 92" cx="22.085" cy="22.079" rx="22.085" ry="22.079" transform="translate(4.229 4.227)" fill="#fff"/>
        </g>
      </g>
      <text id="_2_5" data-name="2%" transform="translate(15.961 22.28)" font-size="15" font-family="SegoeUI-Semibold, Segoe UI" font-weight="600"><tspan x="0" y="0">2%</tspan></text>
      <text id="Indonesia" transform="translate(5.961 33.28)" font-size="9" font-family="SegoeUI-Semibold, Segoe UI" font-weight="600"><tspan x="0" y="0">Indonesia</tspan></text>
    </g>
    <g id="Group_292" data-name="Group 292" transform="translate(1041.482 6965.68)">
      <g id="Group_287-6" data-name="Group 287" transform="translate(0 0)">
        <g id="Group_286-6" data-name="Group 286">
          <path id="Path_190-6" data-name="Path 190" d="M554.475,235.952a26.314,26.314,0,1,0-41.735-.021l20.876,30.5Z" transform="translate(-507.302 -193.658)" fill="#fcb61a"/>
          <ellipse id="Ellipse_92-6" data-name="Ellipse 92" cx="22.085" cy="22.079" rx="22.085" ry="22.079" transform="translate(4.229 4.227)" fill="#fff"/>
        </g>
      </g>
      <text id="_2_6" data-name="2%" transform="translate(15.518 22.078)" font-size="15" font-family="SegoeUI-Semibold, Segoe UI" font-weight="600"><tspan x="0" y="0">2%</tspan></text>
      <text id="Myanmar" transform="translate(8.518 33.078)" font-size="9" font-family="SegoeUI-Semibold, Segoe UI" font-weight="600"><tspan x="0" y="0">Myanmar</tspan></text>
    </g>
    <g id="Group_300" data-name="Group 300" transform="translate(864.852 6888.342)">
      <g id="Group_287-7" data-name="Group 287" transform="translate(0 0)">
        <g id="Group_286-7" data-name="Group 286">
          <path id="Path_190-7" data-name="Path 190" d="M587.74,265.777a44.87,44.87,0,1,0-71.164-.035l35.6,52.01Z" transform="translate(-507.302 -193.658)" fill="#fcb61a"/>
          <ellipse id="Ellipse_92-7" data-name="Ellipse 92" cx="37.659" cy="37.648" rx="37.659" ry="37.648" transform="translate(7.212 7.208)" fill="#fff"/>
        </g>
      </g>
      <text id="_12_" data-name="12%" transform="translate(21.148 40.416)" font-size="26" font-family="SegoeUI-Semibold, Segoe UI" font-weight="600"><tspan x="0" y="0">12%</tspan></text>
      <text id="Kuwait" transform="translate(22.148 58.416)" font-size="15" font-family="SegoeUI-Semibold, Segoe UI" font-weight="600"><tspan x="0" y="0">Kuwait</tspan></text>
    </g>
    <g id="Group_298" data-name="Group 298" transform="translate(921.13 6965.68)">
      <g id="Group_287-8" data-name="Group 287" transform="translate(0 0)">
        <g id="Group_286-8" data-name="Group 286">
          <path id="Path_190-8" data-name="Path 190" d="M561.462,242.217a30.211,30.211,0,1,0-47.916-.024l23.968,35.019Z" transform="translate(-507.302 -193.658)" fill="#fcb61a"/>
          <ellipse id="Ellipse_92-8" data-name="Ellipse 92" cx="25.356" cy="25.349" rx="25.356" ry="25.349" transform="translate(4.856 4.853)" fill="#fff"/>
        </g>
      </g>
      <text id="_5_" data-name="5%" transform="translate(17.87 26.078)" font-size="18" font-family="SegoeUI-Semibold, Segoe UI" font-weight="600"><tspan x="0" y="0">5%</tspan></text>
      <text id="UAE" transform="translate(18.87 42.078)" font-size="11" font-family="SegoeUI-Semibold, Segoe UI" font-weight="600"><tspan x="0" y="0">UAE</tspan></text>
    </g>
    <g id="Group_301" data-name="Group 301" transform="translate(793.421 6867.192)">
      <g id="Group_287-9" data-name="Group 287" transform="translate(0 0)">
        <g id="Group_286-9" data-name="Group 286">
          <path id="Path_190-9" data-name="Path 190" d="M561.462,242.217a30.211,30.211,0,1,0-47.916-.024l23.968,35.019Z" transform="translate(-507.302 -193.658)" fill="#fcb61a"/>
          <ellipse id="Ellipse_92-9" data-name="Ellipse 92" cx="25.356" cy="25.349" rx="25.356" ry="25.349" transform="translate(4.856 4.853)" fill="#fff"/>
        </g>
      </g>
      <text id="_3_" data-name="3%" transform="translate(16.579 27.566)" font-size="19" font-family="SegoeUI-Semibold, Segoe UI" font-weight="600"><tspan x="0" y="0">3%</tspan></text>
      <text id="Natherland" transform="translate(9.579 39.566)" font-size="8" font-family="SegoeUI-Semibold, Segoe UI" font-weight="600"><tspan x="0" y="0">Natherland</tspan></text>
    </g>
    <g id="Group_302" data-name="Group 302" transform="translate(717.661 6835.806)">
      <g id="Group_287-10" data-name="Group 287" transform="translate(0 0)">
        <g id="Group_286-10" data-name="Group 286">
          <path id="Path_190-10" data-name="Path 190" d="M574.791,254.167a37.646,37.646,0,1,0-59.708-.029l29.866,43.638Z" transform="translate(-507.302 -193.658)" fill="#fcb61a"/>
          <ellipse id="Ellipse_92-10" data-name="Ellipse 92" cx="31.597" cy="31.587" rx="31.597" ry="31.587" transform="translate(6.051 6.048)" fill="#fff"/>
        </g>
      </g>
      <text id="_10_" data-name="10%" transform="translate(20.339 36.952)" font-size="21" font-family="SegoeUI-Semibold, Segoe UI" font-weight="600"><tspan x="0" y="0">10%</tspan></text>
      <text id="UK" transform="translate(26.339 54.952)" font-size="15" font-family="SegoeUI-Semibold, Segoe UI" font-weight="600"><tspan x="0" y="0">UK</tspan></text>
    </g>
    <g id="Group_299" data-name="Group 299" transform="translate(845.371 6965.68)">
      <g id="Group_287-11" data-name="Group 287" transform="translate(0 0)">
        <g id="Group_286-11" data-name="Group 286">
          <path id="Path_190-11" data-name="Path 190" d="M570.582,250.393a35.3,35.3,0,1,0-55.984-.027l28,40.916Z" transform="translate(-507.302 -193.658)" fill="#fcb61a"/>
          <ellipse id="Ellipse_92-11" data-name="Ellipse 92" cx="29.626" cy="29.617" rx="29.626" ry="29.617" transform="translate(5.673 5.671)" fill="#fff"/>
        </g>
      </g>
      <text id="_7_" data-name="7%" transform="translate(21.629 29.078)" font-size="21" font-family="SegoeUI-Semibold, Segoe UI" font-weight="600"><tspan x="0" y="0">7%</tspan></text>
      <text id="Saudi_Arabia" data-name="Saudi
Arabia" transform="translate(18.629 43.078)" font-size="11" font-family="SegoeUI-Semibold, Segoe UI" font-weight="600"><tspan x="0" y="0">Saudi</tspan><tspan x="0" y="11">Arabia</tspan></text>
    </g>
    <g id="Group_293" data-name="Group 293" transform="translate(1052.305 7013.301)">
      <g id="Group_287-12" data-name="Group 287" transform="translate(0 0)">
        <g id="Group_286-12" data-name="Group 286">
          <path id="Path_190-12" data-name="Path 190" d="M554.475,235.952a26.314,26.314,0,1,0-41.735-.021l20.876,30.5Z" transform="translate(-507.302 -193.658)" fill="#fcb61a"/>
          <ellipse id="Ellipse_92-12" data-name="Ellipse 92" cx="22.085" cy="22.079" rx="22.085" ry="22.079" transform="translate(4.229 4.227)" fill="#fff"/>
        </g>
      </g>
      <text id="_2_7" data-name="2%" transform="translate(15.695 21.458)" font-size="15" font-family="SegoeUI-Semibold, Segoe UI" font-weight="600"><tspan x="0" y="0">2%</tspan></text>
      <text id="Thailand" transform="translate(9.695 33.458)" font-size="9" font-family="SegoeUI-Semibold, Segoe UI" font-weight="600"><tspan x="0" y="0">Thailand</tspan></text>
    </g>
    <g id="Group_289" data-name="Group 289" transform="translate(1105.398 6893.759)">
      <g id="Group_287-13" data-name="Group 287" transform="translate(0 0)">
        <g id="Group_286-13" data-name="Group 286">
          <path id="Path_190-13" data-name="Path 190" d="M558.3,239.382a28.448,28.448,0,1,0-45.119-.022l22.569,32.975Z" transform="translate(-507.302 -193.658)" fill="#fcb61a"/>
          <ellipse id="Ellipse_92-13" data-name="Ellipse 92" cx="23.876" cy="23.869" rx="23.876" ry="23.869" transform="translate(4.572 4.57)" fill="#fff"/>
        </g>
      </g>
      <text id="_3_2" data-name="3%" transform="translate(16.602 21.999)" font-size="15" font-family="SegoeUI-Semibold, Segoe UI" font-weight="600"><tspan x="0" y="0">3%</tspan></text>
      <text id="Hong_Kong" data-name="Hong
Kong" transform="translate(15.602 32.999)" font-size="10" font-family="SegoeUI-Semibold, Segoe UI" font-weight="600"><tspan x="0" y="0">Hong</tspan><tspan x="0" y="10">Kong</tspan></text>
    </g>
    <g id="Group_290" data-name="Group 290" transform="translate(1094.575 6955.449)">
      <g id="Group_287-14" data-name="Group 287" transform="translate(0 0)">
        <g id="Group_286-14" data-name="Group 286">
          <path id="Path_190-14" data-name="Path 190" d="M568.094,248.162a33.911,33.911,0,1,0-53.783-.026l26.9,39.307Z" transform="translate(-507.302 -193.658)" fill="#fcb61a"/>
          <ellipse id="Ellipse_92-14" data-name="Ellipse 92" cx="28.461" cy="28.453" rx="28.461" ry="28.453" transform="translate(5.45 5.448)" fill="#fff"/>
        </g>
      </g>
      <text id="_7_2" data-name="7%" transform="translate(21.425 28.309)" font-size="18" font-family="SegoeUI-Semibold, Segoe UI" font-weight="600"><tspan x="0" y="0">7%</tspan></text>
      <text id="Vietnam" transform="translate(12.425 44.309)" font-size="11" font-family="SegoeUI-Semibold, Segoe UI" font-weight="600"><tspan x="0" y="0">Vietnam</tspan></text>
    </g>
    <g id="Group_296" data-name="Group 296" transform="translate(1039.546 7063.333)">
      <g id="Group_287-15" data-name="Group 287" transform="translate(0 0)">
        <g id="Group_286-15" data-name="Group 286">
          <path id="Path_190-15" data-name="Path 190" d="M582.449,261.033A41.918,41.918,0,1,0,515.966,261l33.255,48.589Z" transform="translate(-507.302 -193.658)" fill="#fcb61a"/>
          <ellipse id="Ellipse_92-15" data-name="Ellipse 92" cx="35.182" cy="35.172" rx="35.182" ry="35.172" transform="translate(6.737 6.734)" fill="#fff"/>
        </g>
      </g>
      <text id="_12_2" data-name="12%" transform="translate(23.454 39.425)" font-size="21" font-family="SegoeUI-Semibold, Segoe UI" font-weight="600"><tspan x="0" y="0">12%</tspan></text>
      <text id="Singapore" transform="translate(15.454 54.425)" font-size="11" font-family="SegoeUI-Semibold, Segoe UI" font-weight="600"><tspan x="0" y="0">Singapore</tspan></text>
    </g>
    <g id="Group_297" data-name="Group 297" transform="translate(976.379 6981.08)">
      <g id="Group_287-16" data-name="Group 287" transform="translate(0 0)">
        <g id="Group_286-16" data-name="Group 286">
          <path id="Path_190-16" data-name="Path 190" d="M575.042,254.392a37.786,37.786,0,1,0-59.93-.029l29.977,43.8Z" transform="translate(-507.302 -193.658)" fill="#fcb61a"/>
          <ellipse id="Ellipse_92-16" data-name="Ellipse 92" cx="31.714" cy="31.705" rx="31.714" ry="31.705" transform="translate(6.073 6.07)" fill="#fff"/>
        </g>
      </g>
      <text id="_11_" data-name="11%" transform="translate(24.621 32.679)" font-size="18" font-family="SegoeUI-Semibold, Segoe UI" font-weight="600"><tspan x="0" y="0">11%</tspan></text>
      <text id="India" transform="translate(23.621 47.679)" font-size="12" font-family="SegoeUI-Semibold, Segoe UI" font-weight="600"><tspan x="0" y="0">India</tspan></text>
    </g>
    <g id="Group_294" data-name="Group 294" transform="translate(1094.575 7033.374)">
      <g id="Group_287-17" data-name="Group 287" transform="translate(0 0)">
        <g id="Group_286-17" data-name="Group 286">
          <path id="Path_190-17" data-name="Path 190" d="M574.987,254.343a37.756,37.756,0,1,0-59.882-.029l29.953,43.765Z" transform="translate(-507.302 -193.658)" fill="#fcb61a"/>
          <ellipse id="Ellipse_92-17" data-name="Ellipse 92" cx="31.689" cy="31.679" rx="31.689" ry="31.679" transform="translate(6.068 6.065)" fill="#fff"/>
        </g>
      </g>
      <text id="_9_" data-name="9%" transform="translate(24.425 31.385)" font-size="20" font-family="SegoeUI-Semibold, Segoe UI" font-weight="600"><tspan x="0" y="0">9%</tspan></text>
      <text id="Malaysia" transform="translate(14.425 47.385)" font-size="11" font-family="SegoeUI-Semibold, Segoe UI" font-weight="600"><tspan x="0" y="0">Malaysia</tspan></text>
    </g>
  </g>
</svg>
